<svg width="164" height="164" viewBox="0 0 164 164" fill="none" xmlns="http://www.w3.org/2000/svg">
<path d="M77.6085 8.74129C76.2744 8.74129 76.0742 8.9639 75.817 9.7208C75.5598 10.4777 75.5883 12.4012 77.1191 15.1972C79.9244 20.3222 87.4831 27.9219 102.32 35.8836C104.61 33.4877 107.318 31.7452 110.19 30.5302C102.028 26.0215 96.08 21.0554 91.3259 17.0265C85.2624 11.8887 81.2918 8.74097 77.6082 8.74097L77.6085 8.74129ZM56.3802 26.2496C55.1582 26.2518 54.8811 26.5263 54.7562 26.6836C54.6312 26.8405 54.4359 27.2864 54.6008 28.3252C54.9307 30.4021 56.8943 34.0956 60.3664 37.596C67.3118 44.5964 79.8392 51.1411 95.4541 48.7173C96.1364 48.6115 96.9676 48.5199 97.9673 49.0997C98.9667 49.6795 99.4824 51.0088 99.4952 51.7775C99.5195 53.3173 99.0163 53.9793 98.6233 54.8352C97.8379 56.5473 97.2299 58.5691 97.2219 58.5092V58.5102C97.8561 63.3149 101.826 66.928 107.599 69.6026C113.372 72.2782 120.651 73.7679 126.457 74.323C130.478 74.7074 135.179 74.6417 139.558 73.8784C139.06 73.0088 138.701 72.0924 138.498 71.1507C137.933 68.5382 138.531 65.9007 139.809 63.6787C141.856 60.1169 145.61 57.3734 150.174 56.366C148.688 53.8557 146.832 51.1375 144.721 48.4889C138.34 40.4836 129.528 33.4486 122.947 33.3112C116.392 33.1744 108.819 35.2507 104.571 41.0762C103.854 42.0596 102.791 42.4036 102.003 42.5048C101.216 42.6066 100.522 42.5368 99.7867 42.4138C98.3158 42.1685 96.6796 41.6537 94.7856 40.9638C90.9979 39.5839 86.2573 37.4756 81.2918 35.2705C76.3263 33.0658 71.1482 30.7669 66.6394 29.0437C62.1307 27.3204 58.1364 26.2457 56.3808 26.2492L56.3802 26.2496ZM128.265 46.0817C129.598 46.1206 130.863 46.6775 131.792 47.634C132.721 48.5905 133.241 49.8714 133.241 51.2048C133.241 52.564 132.701 53.8676 131.74 54.8287C130.779 55.7898 129.475 56.3298 128.116 56.3298C126.757 56.3298 125.453 55.7898 124.492 54.8287C123.531 53.8676 122.991 52.564 122.991 51.2048C122.991 50.5191 123.128 49.8404 123.395 49.2089C123.662 48.5773 124.053 48.0057 124.545 47.528C125.037 47.0503 125.619 46.6761 126.258 46.4276C126.898 46.1791 127.58 46.0614 128.265 46.0814V46.0817ZM12.7453 61.1082C12.4877 61.1101 12.0992 61.1883 11.4586 61.5054H11.4579C10.096 62.179 9.07576 63.8158 8.61259 66.7345C8.1491 69.6526 8.38965 73.5476 9.21734 77.4746C10.0453 81.4026 11.4448 85.3809 13.0982 88.5683C14.0666 90.4348 15.1438 91.9534 16.1508 93.0953C17.7415 87.5548 20.6169 82.2581 25.0225 77.5793C24.0365 76.9447 23.1361 76.1862 22.3431 75.3224C20.0849 72.8506 18.6262 69.9178 17.3309 67.354C16.0355 64.7902 14.826 62.5961 13.9227 61.7149C13.4717 61.2741 13.2116 61.1659 12.965 61.1255C12.8927 61.1134 12.8195 61.1075 12.7462 61.1079L12.7453 61.1082ZM152.924 61.7681C149.19 62.13 146.104 64.2953 144.806 66.5523C144.107 67.7685 143.911 68.9123 144.132 69.9332C144.295 70.6891 144.68 71.4697 145.544 72.2682C149.341 70.8063 152.321 68.6103 153.919 65.5615C153.827 65.6961 153.977 65.1387 153.757 64.2213C153.599 63.5583 153.31 62.7127 152.924 61.7677L152.924 61.7681ZM89.3429 64.2422C88.5634 64.2408 87.784 64.2444 87.0046 64.2531C64.0904 64.5112 48.3787 68.5677 38.1172 74.5629C26.3896 81.4154 21.5519 90.608 20.55 100.649C19.5481 110.69 22.6641 121.634 27.5969 130.938C32.3503 139.903 38.8379 147.283 44.2435 150.868H99.9984C99.9555 150.256 99.7838 149.729 99.5173 149.206C98.9929 148.178 97.942 147.105 96.3039 146.103C93.0277 144.099 87.617 142.565 81.9501 141.478C76.2828 140.392 70.3628 139.686 65.7342 138.916C63.4193 138.532 61.4443 138.155 59.7982 137.595C58.975 137.315 58.2223 137.014 57.4558 136.444C56.6896 135.873 55.7539 134.719 55.7539 133.25C55.7539 132.414 56.1607 131.654 56.5147 131.258C56.8693 130.862 57.1649 130.701 57.3955 130.578C57.8574 130.333 58.1268 130.273 58.3965 130.207C58.9366 130.077 59.4337 130.014 60.0381 129.947C61.2476 129.814 62.8293 129.707 64.7531 129.567C68.6001 129.286 73.7561 128.892 79.1569 128.065C89.9585 126.412 101.381 122.691 105.152 116.394C107.203 112.97 106.975 109.773 104.973 106.414C102.97 103.055 98.9452 99.7747 93.5313 97.6453C82.7038 93.3861 66.6026 93.6529 51.0194 104.843L47.6561 100.158C58.3312 92.4924 69.4342 89.3758 79.3671 89.3374C85.3274 89.3143 90.8637 90.404 95.6332 92.2801C101.993 94.7817 107.057 98.6639 109.917 103.461C112.778 108.258 113.183 114.203 110.098 119.356C104.447 128.79 91.3669 132.025 80.0279 133.761C78.139 134.05 76.4035 134.232 74.6325 134.431C77.3305 134.831 80.1797 135.266 83.0311 135.812C88.971 136.952 94.8484 138.455 99.3164 141.187C101.551 142.554 103.477 144.28 104.652 146.583C105.311 147.877 105.678 149.335 105.731 150.867H147.583C148.247 150.303 148.684 149.825 148.815 149.566C148.987 149.225 148.962 149.188 148.895 148.905C148.759 148.338 147.72 146.931 146.403 145.342C145.593 144.367 142.874 142.806 139.465 141.948C136.057 141.091 131.988 140.779 128.495 141.237L127.744 141.328L127.033 141.047C124.898 140.178 123.233 137.956 123.11 135.822C122.986 133.688 123.715 131.866 124.621 129.907C126.433 125.989 129.363 121.462 131.728 116.223C134.093 110.985 135.862 105.166 135.482 98.9765C135.113 92.9771 132.77 86.5068 126.564 79.4759C126.365 79.4592 126.165 79.4439 125.969 79.4247H125.968C119.72 78.8276 112.027 77.3042 105.442 74.2529C100.563 71.9915 96.1325 68.7541 93.7782 64.2995C92.2753 64.2675 90.7891 64.2444 89.3419 64.2418L89.3429 64.2422Z" stroke="white" stroke-width="3"/>
</svg>
