<svg width="138" height="144" viewBox="0 0 138 144" fill="none" xmlns="http://www.w3.org/2000/svg">
<path d="M132.971 33.7672C133.434 33.6778 133.994 33.6209 134.425 33.5559C134.992 33.5445 135.552 33.6818 136.05 33.954C136.134 34.0004 136.229 34.0215 136.325 34.0148C136.42 34.0082 136.512 33.974 136.588 33.9164C136.664 33.8588 136.723 33.7803 136.755 33.6904C136.788 33.6005 136.794 33.503 136.773 33.4097C136.611 32.8978 136.375 32.2884 136.245 31.8659C136.185 31.6811 136.079 31.5146 135.937 31.3823C135.795 31.25 135.621 31.1564 135.432 31.1103C135.209 31.0616 135.015 30.9265 134.892 30.7346C134.768 30.5426 134.726 30.3096 134.774 30.0865C134.847 29.7705 134.983 29.4721 135.172 29.209C135.741 28.4833 136.139 27.6396 136.339 26.7398C136.538 25.84 136.534 24.907 136.326 24.009C136.039 23.1392 135.466 22.3919 134.701 21.8884C134.624 21.8422 134.557 21.7799 134.506 21.7057C134.455 21.6315 134.421 21.5472 134.406 21.4585C134.39 21.3698 134.394 21.2788 134.417 21.1917C134.44 21.1047 134.481 21.0236 134.539 20.954C134.763 20.6465 134.887 20.2781 134.896 19.8978C134.868 19.0799 134.704 18.2724 134.409 17.509C134.332 17.0573 134.332 16.5958 134.409 16.144C134.539 15.5103 133.71 15.1203 133.71 15.1203C133.71 15.1203 134.336 14.454 133.71 13.1215C133.084 11.789 128.835 11.3747 128.835 11.3747C128.835 11.3747 129.461 8.6528 126.032 7.31217C123.261 6.25592 121.051 10.5622 120.296 12.3253C120.196 12.5352 120.026 12.7041 119.816 12.8034C119.605 12.9026 119.367 12.926 119.142 12.8697C119.026 12.8565 118.916 12.8124 118.823 12.7419C118.73 12.6714 118.657 12.5773 118.613 12.4692C118.569 12.3612 118.555 12.2433 118.572 12.1279C118.59 12.0125 118.637 11.9039 118.711 11.8134L120.986 9.37592C121.084 9.26735 121.155 9.13666 121.192 8.99495C121.229 8.85323 121.231 8.70467 121.199 8.5619C121.166 8.41913 121.099 8.28637 121.004 8.17488C120.909 8.0634 120.789 7.97649 120.653 7.92154L120.393 7.79967L120.523 7.74279C121.003 7.57672 121.398 7.22668 121.621 6.76961C121.843 6.31253 121.875 5.78584 121.709 5.3053V5.29717C121.615 5.02844 121.462 4.78369 121.263 4.58015C121.064 4.37661 120.822 4.21922 120.556 4.11904L120.084 3.93217C119.601 3.73526 119.203 3.37225 118.963 2.90842L118.606 2.18529C118.395 1.79963 118.077 1.48315 117.691 1.27409C117.305 1.06503 116.866 0.97232 116.428 1.00717C113.692 1.24852 111.125 2.43164 109.164 4.35467C105.012 8.16529 102.104 24.854 101.608 28.1447C101.547 28.5281 101.378 28.8862 101.121 29.1765C100.687 29.6965 99.9613 30.5226 98.943 31.6547C95.1596 35.6433 90.3626 38.5278 85.0655 39.999C78.8646 40.7389 72.6226 41.0809 66.378 41.0228C59.876 41.0736 53.4176 39.9591 47.3087 37.7322C42.9374 35.1809 39.208 21.9209 34.2274 16.9972C30.6555 13.7286 26.2873 11.4563 21.5605 10.4078C20.649 10.2233 19.7142 10.1821 18.7899 10.2859C18.6764 10.3017 18.5607 10.2856 18.4558 10.2393C18.3509 10.1931 18.261 10.1186 18.1961 10.0241C18.1311 9.92968 18.0938 9.81902 18.0881 9.70454C18.0825 9.59005 18.1089 9.47627 18.1643 9.37592C18.3909 9.0182 18.5892 8.6433 18.7574 8.25467C18.8224 7.86467 18.1968 6.89779 18.1968 6.89779L17.0755 5.98779L16.6124 5.35404L15.353 4.96404L15.1255 4.80967C15.0531 4.77204 14.9737 4.74997 14.8923 4.74487C14.8108 4.73978 14.7292 4.75177 14.6527 4.78008C14.5762 4.80839 14.5065 4.8524 14.448 4.90927C14.3895 4.96613 14.3435 5.03461 14.313 5.11029L13.9474 6.17467C13.9474 6.17467 13.1349 4.54967 12.5905 4.80967C11.7049 5.26467 12.5905 7.65342 12.5905 7.65342C12.5905 7.65342 10.9655 4.93154 10.0555 5.35404C8.43053 6.08529 10.3805 9.58717 10.3805 9.58717C10.3805 9.58717 9.16178 7.44217 8.30865 7.7753C7.87803 7.92155 8.30865 10.619 8.30865 10.619C8.30865 10.619 7.42303 10.3103 7.0899 10.4647C6.75678 10.619 7.45553 12.7315 7.45553 12.7315H6.41553C6.28024 12.7281 6.14725 12.7669 6.03509 12.8427C5.92294 12.9184 5.83722 13.0273 5.7899 13.154L5.6599 13.5197L5.06678 13.999C4.83206 14.1925 4.6533 14.4451 4.54902 14.7308C4.44473 15.0165 4.41871 15.3249 4.47365 15.624L4.60365 16.3228L4.43303 17.0459L4.50615 17.8584C3.56616 18.5503 2.71238 19.3523 1.96303 20.2472C1.29085 21.366 0.957795 22.6559 1.00428 23.9603C1.39177 23.5113 1.89473 23.177 2.45865 22.9934L4.01053 22.1809C4.96487 21.6943 6.04307 21.5047 7.10615 21.6365H9.05615C8.64514 22.5699 8.37146 23.5579 8.24365 24.5697C8.24375 25.2474 8.39155 25.9169 8.67676 26.5317C8.96197 27.1465 9.37774 27.6917 9.89513 28.1294C10.4125 28.5672 11.0191 28.8869 11.6726 29.0663C12.3261 29.2457 13.0109 29.2806 13.6793 29.1684C14.3301 29.0797 14.9527 28.8461 15.5011 28.4847C16.0495 28.1233 16.5098 27.6433 16.848 27.0803C14.1417 32.704 12.3794 38.7348 11.6318 44.9309C10.5759 54.5444 13.255 64.1959 19.1149 71.8897C28.5562 83.9309 42.7424 86.9453 46.1468 89.3909C49.5511 91.8365 54.0605 96.8903 57.2293 98.5803C60.0324 100.092 64.0949 104.503 68.5474 107.924C70.1591 109.27 71.9074 110.444 73.7636 111.426C72.4808 117.169 70.6805 122.785 68.3849 128.204C68.1787 128.63 67.8448 128.981 67.4297 129.208C67.0147 129.435 66.5391 129.527 66.0693 129.472C63.812 129.254 61.5423 129.194 59.2768 129.293C57.764 129.563 56.2904 130.019 54.8893 130.65C54.5562 130.772 54.6943 131.194 55.0193 131.194C56.5711 131.194 58.9436 131.194 59.8374 131.283C59.8374 131.283 61.6168 131.828 61.6493 131.828C61.3893 131.828 59.2118 131.893 58.8461 131.925C55.5094 132.137 52.1978 132.643 48.9499 133.437C48.8862 133.458 48.8318 133.5 48.7957 133.557C48.7596 133.613 48.744 133.681 48.7517 133.747C48.7593 133.814 48.7896 133.876 48.8375 133.923C48.8855 133.97 48.9481 133.999 49.0149 134.005C50.6399 134.16 53.768 134.46 55.1493 134.672C57.2293 135.005 58.0905 136.004 60.268 136.394C59.4792 136.923 58.6379 137.37 57.7574 137.727C56.7011 137.97 55.2224 140.448 54.3286 142.082C54.1986 142.317 54.4911 142.593 54.7918 142.472C56.6361 141.505 60.7311 139.327 61.2268 139.148C64.5334 137.725 67.9972 136.7 71.5455 136.093C71.7811 136.037 72.1793 135.939 72.8374 134.915C74.6168 135.159 76.5993 135.492 78.2161 135.793C77.4301 136.325 76.5882 136.769 75.7055 137.117C74.6493 137.361 73.268 139.75 72.3093 141.415C72.2829 141.478 72.2772 141.547 72.293 141.613C72.3088 141.678 72.3452 141.737 72.397 141.781C72.4488 141.825 72.5132 141.851 72.5807 141.855C72.6483 141.859 72.7154 141.842 72.7724 141.805C74.3974 140.871 77.4199 139.083 78.7443 138.393C82.2143 137.087 85.8036 136.124 89.4611 135.517C89.7293 135.46 90.2249 135.305 91.0861 133.762C91.3924 133.229 91.8886 132.831 92.4755 132.648C93.5891 132.216 94.7515 131.921 95.9368 131.771C96.668 132.583 99.0405 132.583 100.097 132.527H100.787C100.827 132.528 100.865 132.518 100.899 132.497C100.932 132.477 100.959 132.448 100.976 132.413C100.994 132.377 101 132.338 100.996 132.299C100.991 132.26 100.975 132.223 100.95 132.193L100.495 131.714C100.495 131.649 99.333 130.471 98.4799 129.658C96.8113 129.005 95.0192 128.728 93.2311 128.846C93.9949 126.79 94.913 124.158 95.9368 120.623C96.8955 117.601 97.7568 114.546 98.4474 111.889C102.265 110.032 105.244 106.807 106.792 102.854C109.46 100.961 111.714 98.5434 113.415 95.7493C115.117 92.9552 116.23 89.8433 116.688 86.604C116.068 79.9314 114.481 73.3844 111.976 67.169C115.565 66.6816 119.044 65.5823 122.262 63.919C126.186 60.2763 128.63 55.3156 129.127 49.9847C129.441 47.1958 129.574 44.3895 129.526 41.5834C129.557 41.2818 129.664 40.993 129.837 40.7443C130.011 40.4956 130.244 40.295 130.517 40.1615C130.939 39.9801 131.337 39.7482 131.703 39.4709C133.055 38.9887 134.451 38.6404 135.871 38.4309C135.963 38.4238 136.051 38.3937 136.128 38.3434C136.204 38.2931 136.267 38.2242 136.31 38.1431C136.353 38.0621 136.375 37.9714 136.373 37.8797C136.372 37.788 136.347 37.6981 136.302 37.6184C135.835 36.9756 135.267 36.413 134.62 35.9528L132.702 34.6853C132.624 34.6206 132.566 34.5342 132.536 34.4369C132.506 34.3395 132.505 34.2355 132.533 34.1377C132.562 34.0399 132.619 33.9526 132.696 33.8868C132.774 33.8209 132.869 33.7793 132.971 33.7672ZM86.7718 128.139C86.4468 128.87 85.1468 128.87 84.2693 128.805C81.9469 128.545 79.6063 128.485 77.2736 128.627C76.3652 128.706 75.4619 128.836 74.568 129.017C75.2911 127.026 79.3211 113.937 80.1093 110.971C82.2708 109.937 84.3255 108.694 86.2436 107.258C88.5593 105.113 88.7543 104.048 88.7543 104.048C89.2101 106.565 90.5011 108.855 92.4186 110.548C91.0704 116.57 89.1804 122.458 86.7718 128.139Z" stroke="white" stroke-width="2"/>
</svg>
