<svg width="194" height="194" viewBox="0 0 194 194" fill="none" xmlns="http://www.w3.org/2000/svg">
<path d="M65.4345 117.208H76.7916C76.7916 122.584 70.9958 129.333 60.6249 129.333C56.7813 129.333 53.5641 128.404 51.0381 126.965C56.8177 124.661 61.2999 121.234 65.4305 117.208M105.083 117.208H84.8749C84.8722 118.801 84.6607 120.341 84.2404 121.828C85.1299 122.195 85.8377 122.9 86.2089 123.787C86.5801 124.675 86.5844 125.674 86.2208 126.565L86.0672 126.945C85.6614 127.937 84.8782 128.727 83.8899 129.141C82.9015 129.556 81.7889 129.561 80.7969 129.155L80.3483 128.97C78.9498 130.594 77.2685 132.041 75.3649 133.254C76.4198 135.222 75.7003 137.7 73.7321 138.758C72.7877 139.265 71.6806 139.376 70.6543 139.067C69.6281 138.758 68.7667 138.054 68.2596 137.109L67.9242 136.487C65.2557 137.184 62.5005 137.493 59.7438 137.405L59.6388 137.95C59.5489 138.481 59.3537 138.989 59.0647 139.444C58.7756 139.899 58.3986 140.291 57.9558 140.598C57.5129 140.905 57.0132 141.12 56.4859 141.231C55.9587 141.342 55.4146 141.346 54.8856 141.244C54.3566 141.142 53.8535 140.934 53.4057 140.635C52.9579 140.335 52.5746 139.949 52.2783 139.499C51.9819 139.049 51.7786 138.544 51.6801 138.014C51.5817 137.485 51.5901 136.941 51.705 136.414L51.7777 136.03C48.2576 134.912 45.0338 133.017 42.3445 130.485L41.0875 145.557C42.0864 145.725 42.9855 146.263 43.6066 147.064C44.2277 147.864 44.5256 148.869 44.4412 149.878C44.3568 150.888 43.8963 151.829 43.151 152.515C42.4056 153.201 41.4297 153.583 40.4166 153.583H28.2916V80.8333C28.2724 75.3465 30.0781 70.0091 33.4245 65.6609C30.8985 66.3399 29.1363 67.3301 27.8874 68.5305C25.6362 70.6927 24.2499 74.3343 24.2499 80.8333L22.6858 102.739C23.6396 104.214 24.2499 106.526 24.2499 109.125C24.2499 113.591 22.4433 117.208 20.2083 117.208C17.9732 117.208 16.1666 113.591 16.1666 109.125C16.1666 106.526 16.7809 104.214 17.7307 102.739L16.1666 80.8333C16.1666 73.4209 17.7146 67.0916 22.2857 62.6983C26.8002 58.3616 33.4245 56.7288 41.5765 56.5914C41.8837 56.5833 50.2944 56.5833 50.5208 56.5833V56.6116C50.895 56.5935 51.2696 56.584 51.6443 56.5833H111.146C118.966 56.5833 124.867 55.4193 129.822 53.8835L130.437 53.0509C127.729 52.3638 125.001 51.2645 123.04 49.8175C117.912 46.0426 114.929 38.4483 121.501 39.2809C123.408 39.5234 124.79 39.5719 125.914 39.6123C128.658 39.7053 129.875 39.7497 133.512 42.4294C134.996 43.5206 136.297 44.6927 137.356 45.8527C143.01 41.6493 150.54 39.77 163.687 40.4166C164.223 40.4166 164.737 40.6295 165.116 41.0085C165.495 41.3875 165.708 41.9015 165.708 42.4375C165.708 42.9734 165.495 43.4874 165.116 43.8664C164.737 44.2454 164.223 44.4583 163.687 44.4583H156.667C155.515 45.202 154.525 45.8971 153.648 46.56L168.133 64.6666H168.99C170.25 64.6663 171.493 64.9608 172.62 65.5265C173.746 66.0922 174.725 66.9134 175.477 67.9246C176.229 68.9357 176.735 70.1089 176.953 71.3502C177.171 72.5915 177.096 73.8667 176.734 75.0739L175.521 79.1156C175.022 80.7807 173.998 82.2402 172.603 83.2777C171.208 84.3152 169.516 84.8753 167.778 84.875H154.194C152.484 84.8749 150.819 85.4169 149.437 86.4229L140.585 92.8572C140.316 93.0512 140.042 93.2264 139.765 93.3827C133.432 109.711 126.751 122.426 119.274 128.824L117.879 145.557C118.878 145.725 119.777 146.263 120.398 147.064C121.019 147.864 121.317 148.869 121.233 149.878C121.148 150.888 120.688 151.829 119.943 152.515C119.197 153.201 118.221 153.583 117.208 153.583H105.083V117.208Z" stroke="white" stroke-width="3"/>
</svg>
