<svg width="196" height="196" viewBox="0 0 196 196" fill="none" xmlns="http://www.w3.org/2000/svg">
<path d="M74.1292 145.045C74.1731 145.109 74.2332 145.196 74.2988 145.281C74.3214 145.311 74.3445 145.341 74.368 145.372C75.0288 146.244 76.0407 147.579 76.4388 148.688C76.654 149.286 76.5733 149.505 76.5511 149.54C76.547 149.547 76.5134 149.604 76.3485 149.668C76.1706 149.736 75.8679 149.798 75.3835 149.798C69.9296 149.798 64.2007 146.571 59.5411 143.444L59.5296 143.436L59.5179 143.429C59.2564 143.264 58.1051 142.487 56.9215 141.558L56.7237 141.403L56.4758 141.36C52.4599 140.66 48.4142 139.793 44.3692 138.744C36.982 136.802 30.4147 134.259 24.3092 130.919C24.3082 130.918 24.3072 130.918 24.3063 130.917L23.1779 130.292L23.17 130.288C17.5398 127.234 10.1407 123.192 5.93763 116.749C5.28915 115.748 4.9826 114.955 4.8359 114.282C4.68892 113.608 4.69039 113.004 4.7196 112.326C4.7355 112.086 4.75283 111.786 4.7354 111.386L4.71731 110.969L4.40902 110.689L3.76942 110.108C2.59724 108.825 0.655767 106.647 1.75884 103.389C2.37094 101.581 3.28217 100.193 4.15645 98.874L4.15693 98.8733L4.81537 97.878L4.82227 97.8676L4.8289 97.857C5.83647 96.2479 6.90661 94.7251 8.0113 93.2573L8.01332 93.2546C10.116 90.4409 12.4453 87.7033 14.9398 85.1482C23.4622 76.4751 33.7368 70.1126 45.5021 66.2111L45.5022 66.211C48.8225 65.1093 52.287 64.2463 55.8386 63.5481L56.1872 63.4796L56.4144 63.2065C59.8099 59.1259 63.3062 55.3488 67.4751 52.1695C68.1181 51.6817 68.7713 51.1494 69.4216 50.6195C69.4772 50.5741 69.5328 50.5288 69.5884 50.4836C70.2998 49.9041 71.0113 49.3282 71.7373 48.7877C73.1967 47.7011 74.6511 46.8071 76.1452 46.3595L76.1466 46.3591C77.3248 46.0042 77.9517 46.0718 78.2666 46.2059C78.5259 46.3163 78.734 46.5415 78.8733 47.0486C79.02 47.5823 79.0495 48.3003 79.0047 49.1656C78.9735 49.7693 78.9112 50.3802 78.8478 51.0019C78.8203 51.2714 78.7927 51.543 78.7672 51.8169L78.7672 51.817C78.4909 54.7945 78.345 58.2209 79.3006 61.203L79.5109 61.8592L80.1989 61.8964C91.7056 62.5188 102.914 64.9032 114.183 67.9724L114.743 68.1248L115.153 67.7146C115.402 67.4657 115.689 67.2027 116.024 66.896L116.117 66.8106L116.121 66.8068C116.717 66.2546 117.363 65.6048 118.03 64.9342C118.147 64.8167 118.264 64.6987 118.382 64.5804C119.182 63.7779 120.016 62.9518 120.878 62.1808C122.63 60.6125 124.366 59.3935 125.982 59.0251C127.037 58.7882 127.877 58.9536 128.601 59.3553C129.355 59.7732 130.038 60.4789 130.681 61.4036C131.322 62.3256 131.882 63.4045 132.418 64.5104C132.561 64.806 132.704 65.107 132.846 65.4071C133.222 66.1995 133.596 66.9868 133.966 67.6587L133.968 67.6616C134.66 68.9078 135.473 70.117 136.262 71.289C136.374 71.4563 136.486 71.6227 136.597 71.7885C137.498 73.1335 138.348 74.4421 139.011 75.8057L139.177 76.1465L139.527 76.2918C145.444 78.747 151.137 81.4025 156.417 83.9123L156.423 83.9153L157.1 84.231L157.112 84.2368L157.145 84.2526C157.587 84.4666 158.111 84.7195 158.599 84.9199C159.056 85.1079 159.656 85.326 160.169 85.326H160.284L160.397 85.2996C160.933 85.1739 161.402 84.7747 161.73 84.4555C162.099 84.0959 162.475 83.6468 162.825 83.1925C163.523 82.2865 164.186 81.2668 164.571 80.6664C164.721 80.4453 164.862 80.2344 164.997 80.0331C165.348 79.509 165.655 79.0495 165.969 78.6422L165.973 78.6363L165.978 78.6302C167.804 76.1801 169.659 73.7706 171.508 71.3692L171.798 70.9915C171.799 70.9905 171.8 70.9894 171.801 70.9883C173.272 69.1035 174.73 67.2159 176.173 65.2963L176.18 65.2877L176.186 65.279L176.888 64.3023C176.888 64.3021 176.888 64.3019 176.889 64.3017C177.78 63.072 178.734 61.7764 179.977 60.6624L179.978 60.6619C181.484 59.3093 183.234 58.0238 185.144 58.0238C186.461 58.0238 187.655 58.6168 188.409 59.6497L188.415 59.6575C189.237 60.7626 189.559 62.1704 189.336 64.3725C189.11 66.6041 188.339 69.5096 187.112 73.4969L187.112 73.4998C186.896 74.2071 186.727 74.7775 186.618 75.1494L186.613 75.1663L186.609 75.1833C185.848 78.1815 185.274 81.2853 184.886 84.4175L184.886 84.4212C184.795 85.1737 184.69 85.9273 184.569 86.6975L184.568 86.703C184.18 89.2703 183.773 92.0058 184.444 94.2673C184.792 95.492 185.483 96.7674 186.151 98.0021L186.208 98.1066C186.962 99.5068 187.706 100.897 188.258 102.466L188.26 102.473L188.263 102.48C188.843 104.055 189.854 105.643 190.706 106.937C190.707 106.938 190.708 106.94 190.709 106.941L190.753 107.01C192.096 109.1 193.47 111.24 194.211 113.829C194.886 116.234 194.193 117.682 193.529 118.413L193.502 118.443L193.477 118.476C192.987 119.112 191.843 120.244 189.615 120.244C187.294 120.244 184.426 118.964 182.814 118.135L182.813 118.134C179.341 116.353 176.247 114.103 173.192 111.876L173.19 111.875L171.462 110.621L171.46 110.62L171.429 110.597C170.666 110.04 169.465 109.164 168.233 108.423C167.608 108.047 166.954 107.693 166.328 107.43C165.72 107.175 165.053 106.968 164.426 106.968H164.1L163.836 107.161C162.034 108.476 160.405 109.573 158.832 110.633C158.591 110.796 158.351 110.958 158.111 111.119C156.341 112.294 154.634 113.437 153.046 114.726L153.039 114.731C148.487 118.492 144.013 121.809 139.573 124.744L139.338 124.899L139.219 125.155C139.129 125.347 139.037 125.564 138.962 125.742C138.939 125.795 138.918 125.844 138.899 125.888L138.895 125.9C138.542 126.752 138.248 127.616 137.965 128.445C137.941 128.515 137.918 128.585 137.894 128.654C137.585 129.559 137.284 130.425 136.912 131.27L136.907 131.283C136.658 131.872 136.428 132.47 136.221 133.007C136.092 133.342 135.973 133.652 135.863 133.923C135.555 134.684 135.276 135.267 134.934 135.731C134.323 136.561 133.4 137.173 131.156 137.336C129.551 137.447 127.912 137.186 126.201 136.799C125.608 136.665 124.99 136.511 124.362 136.354C123.24 136.075 122.084 135.786 120.977 135.588L120.974 135.587C120.703 135.539 120.296 135.477 119.905 135.417L119.896 135.415L119.609 135.371L119.343 135.488C119.099 135.594 118.866 135.696 118.62 135.798C108.655 139.716 98.8138 142.124 89.3679 142.957C86.0589 143.245 82.6429 143.397 79.181 143.397C78.3239 143.397 77.4691 143.353 76.584 143.308C76.0061 143.278 75.4152 143.248 74.8023 143.229L72.6366 143.161L73.9902 144.853C74.0277 144.9 74.0641 144.951 74.1154 145.025L74.1292 145.045Z" stroke="white" stroke-width="2"/>
<mask id="path-2-inside-1_41_366" fill="white">
<path d="M154.151 105.013C152.268 106.253 150.354 107.54 148.486 109.071C137.323 118.243 126.711 124.766 116.038 128.962C106.744 132.622 97.5868 134.873 88.8127 135.638C83.1011 136.159 77.068 136.189 70.8664 135.761C63.7768 135.255 56.5033 134.092 49.1839 132.346C50.118 130.279 50.8836 128.12 51.4655 125.93C52.1699 123.312 52.4149 119.897 52.1699 116.926C53.2571 117.294 54.3136 117.631 55.4008 118.029C58.8308 119.3 62.3221 120.127 65.798 120.157C68.4011 120.157 70.2693 117.707 72.3058 115.38C74.5261 112.822 76.8689 110.311 77.3283 105.074C77.4508 103.834 77.8643 102.104 77.2977 101.2C76.6393 100.113 75.1386 100.297 74.3118 100.067C73.2093 99.7916 72.1374 99.6691 71.0655 99.5312C67.9418 99.1331 65.0324 99.3628 61.9546 100.037C58.4633 100.787 54.8955 101.813 51.5114 103.482C51.0674 103.696 50.6386 103.972 50.1946 104.232C49.5208 101.323 48.4183 98.49 47.3771 95.7031C46.5655 93.5288 46.0296 91.3391 44.1155 89.8078C43.0896 88.9809 40.4711 88.2306 39.9811 90.0222C39.7821 90.7725 40.2414 91.8597 40.7927 92.8856C41.2368 93.7125 41.7114 94.4934 41.9105 95.06C43.3193 99.1638 43.9777 103.482 44.6208 107.739C45.4018 112.807 45.6008 117.079 45.2486 122.224C45.0802 124.659 44.4064 127.002 43.5796 129.054C43.3499 129.605 43.0896 130.141 42.7986 130.662C37.4086 129.023 32.4933 127.017 27.8996 124.506L26.7511 123.878C21.7593 121.168 15.5424 117.784 12.143 112.715C12.1736 112.317 12.1889 111.843 12.1583 111.245C13.2455 109.638 16.0018 110.235 17.4871 110.755C19.4011 111.429 21.2233 112.715 23.2446 112.532C25.1893 112.363 25.9089 110.403 24.8524 108.841C23.8418 107.31 21.3764 106.59 19.7993 105.809C17.9924 104.906 15.8486 104.508 13.9039 103.957C12.6789 103.604 11.3927 103.467 10.1064 103.436C10.1983 103.298 10.2596 103.176 10.3514 103.038C10.6118 102.64 10.8874 102.242 11.1171 101.843C12.0052 100.419 12.9852 99.0566 13.9499 97.7397C15.8639 95.1825 17.9618 92.7172 20.2433 90.3897C22.0655 88.5369 23.9949 86.7913 25.9855 85.1834C27.3024 84.2034 30.5333 82.3812 35.3721 83.2847C40.5018 84.2494 43.5336 86.7147 52.568 85.2906C61.6177 83.8666 62.6743 79.625 71.4943 79.625C80.3143 79.625 83.4074 86.5156 94.2027 87.0363C103.819 87.4803 104.692 81.7534 113.925 83.1316C123.159 84.4944 124.031 93.3909 136.481 93.3909C148.93 93.3909 150.691 88.9503 163.706 98.4287C163.66 98.8575 163.553 99.3016 163.431 99.7609C161.777 99.96 160.246 100.573 158.959 101.614C157.489 102.778 155.866 103.865 154.151 105.013Z"/>
</mask>
<path d="M148.486 109.071L147.852 108.298L147.851 108.298L148.486 109.071ZM116.038 128.962L115.672 128.031L115.672 128.031L116.038 128.962ZM88.8127 135.638L88.7258 134.642L88.7219 134.642L88.8127 135.638ZM70.8664 135.761L70.7954 136.758L70.7975 136.758L70.8664 135.761ZM49.1839 132.346L48.2727 131.934L47.774 133.038L48.952 133.319L49.1839 132.346ZM51.4655 125.93L50.4998 125.67L50.4991 125.673L51.4655 125.93ZM52.1699 116.926L52.4901 115.979L51.0482 115.491L51.1733 117.008L52.1699 116.926ZM55.4008 118.029L55.7483 117.091L55.7447 117.09L55.4008 118.029ZM65.798 120.157L65.7892 121.157H65.798V120.157ZM72.3058 115.38L73.0584 116.038L73.0609 116.035L72.3058 115.38ZM77.3283 105.074L76.3331 104.976L76.3321 104.987L77.3283 105.074ZM77.2977 101.2L76.4423 101.718L76.4464 101.725L76.4505 101.732L77.2977 101.2ZM74.3118 100.067L74.5794 99.1037L74.5669 99.1002L74.5543 99.097L74.3118 100.067ZM71.0655 99.5312L71.193 98.5394L71.1919 98.5393L71.0655 99.5312ZM61.9546 100.037L62.1647 101.014L62.1684 101.013L61.9546 100.037ZM51.5114 103.482L51.9462 104.382L51.9538 104.379L51.5114 103.482ZM50.1946 104.232L49.2203 104.458L49.5271 105.783L50.7003 105.095L50.1946 104.232ZM47.3771 95.7031L46.4402 96.0528L46.4403 96.0531L47.3771 95.7031ZM44.1155 89.8078L43.488 90.5864L43.4908 90.5887L44.1155 89.8078ZM39.9811 90.0222L39.0165 89.7584L39.0146 89.7658L39.9811 90.0222ZM40.7927 92.8856L41.6737 92.4125L41.6736 92.4123L40.7927 92.8856ZM41.9105 95.06L42.8564 94.7353L42.854 94.7285L41.9105 95.06ZM44.6208 107.739L43.632 107.888L43.6325 107.891L44.6208 107.739ZM45.2486 122.224L46.2462 122.293L46.2463 122.293L45.2486 122.224ZM43.5796 129.054L44.5027 129.438L44.5071 129.428L43.5796 129.054ZM42.7986 130.662L42.5078 131.618L43.2786 131.853L43.6716 131.149L42.7986 130.662ZM27.8996 124.506L28.3792 123.628L28.3792 123.628L27.8996 124.506ZM26.7511 123.878L27.2308 123.001L27.2283 122.999L26.7511 123.878ZM12.143 112.715L11.146 112.639L11.1194 112.984L11.3125 113.272L12.143 112.715ZM12.1583 111.245L11.3299 110.685L11.1425 110.962L11.1596 111.297L12.1583 111.245ZM17.4871 110.755L17.8191 109.812L17.8179 109.812L17.4871 110.755ZM23.2446 112.532L23.1583 111.535L23.154 111.536L23.2446 112.532ZM24.8524 108.841L24.0177 109.392L24.0241 109.402L24.8524 108.841ZM19.7993 105.809L19.352 106.704L19.3555 106.706L19.7993 105.809ZM13.9039 103.957L13.6276 104.918L13.6312 104.919L13.9039 103.957ZM10.1064 103.436L9.27439 102.881L8.26694 104.392L10.0826 104.436L10.1064 103.436ZM10.3514 103.038L11.1835 103.593L11.1884 103.585L10.3514 103.038ZM11.1171 101.843L10.2686 101.314L10.2595 101.329L10.2509 101.344L11.1171 101.843ZM13.9499 97.7397L13.1493 97.1404L13.1432 97.1487L13.9499 97.7397ZM20.2433 90.3897L19.5303 89.6885L19.5292 89.6897L20.2433 90.3897ZM25.9855 85.1834L25.3885 84.3812L25.3726 84.393L25.3572 84.4055L25.9855 85.1834ZM35.3721 83.2847L35.5569 82.3019L35.5556 82.3017L35.3721 83.2847ZM52.568 85.2906L52.4126 84.3028L52.4123 84.3028L52.568 85.2906ZM94.2027 87.0363L94.1545 88.0351L94.1566 88.0352L94.2027 87.0363ZM113.925 83.1316L113.778 84.1206L113.779 84.1208L113.925 83.1316ZM163.706 98.4287L164.7 98.5353L164.762 97.9606L164.295 97.6204L163.706 98.4287ZM163.431 99.7609L163.55 100.754L164.222 100.673L164.397 100.019L163.431 99.7609ZM158.959 101.614L159.58 102.398L159.588 102.391L158.959 101.614ZM153.601 104.178C151.716 105.42 149.764 106.73 147.852 108.298L149.119 109.844C150.944 108.349 152.82 107.087 154.701 105.848L153.601 104.178ZM147.851 108.298C136.748 117.421 126.225 123.883 115.672 128.031L116.404 129.893C127.197 125.65 137.898 119.065 149.12 109.844L147.851 108.298ZM115.672 128.031C106.454 131.661 97.3916 133.886 88.7258 134.642L88.8996 136.634C97.7819 135.859 107.033 133.582 116.405 129.892L115.672 128.031ZM88.7219 134.642C83.0694 135.158 77.09 135.189 70.9354 134.763L70.7975 136.758C77.046 137.19 83.1329 137.16 88.9035 136.634L88.7219 134.642ZM70.9375 134.763C63.9075 134.262 56.688 133.108 49.4159 131.373L48.952 133.319C56.3186 135.076 63.646 136.249 70.7954 136.758L70.9375 134.763ZM50.0952 132.758C51.0522 130.64 51.8362 128.429 52.432 126.187L50.4991 125.673C49.9311 127.811 49.1838 129.918 48.2727 131.934L50.0952 132.758ZM52.4312 126.19C53.1702 123.442 53.4194 119.91 53.1665 116.844L51.1733 117.008C51.4104 119.884 51.1696 123.181 50.4998 125.67L52.4312 126.19ZM51.8497 117.874C52.9581 118.248 53.9852 118.575 55.057 118.968L55.7447 117.09C54.642 116.686 53.556 116.339 52.4901 115.979L51.8497 117.874ZM55.0534 118.966C58.5537 120.263 62.163 121.125 65.7892 121.157L65.8068 119.157C62.4812 119.128 59.108 118.336 55.7483 117.091L55.0534 118.966ZM65.798 121.157C67.4394 121.157 68.7828 120.378 69.9177 119.398C71.0339 118.435 72.0769 117.16 73.0584 116.038L71.5532 114.721C70.4981 115.927 69.5889 117.04 68.6111 117.884C67.652 118.712 66.7597 119.157 65.798 119.157V121.157ZM73.0609 116.035C75.2887 113.47 77.8347 110.745 78.3245 105.162L76.3321 104.987C75.9032 109.877 73.7636 112.175 71.5507 114.724L73.0609 116.035ZM78.3235 105.173C78.3519 104.885 78.397 104.571 78.446 104.206C78.4934 103.853 78.5428 103.465 78.5691 103.079C78.6177 102.367 78.6132 101.416 78.1449 100.669L76.4505 101.732C76.5488 101.888 76.6208 102.254 76.5737 102.943C76.5522 103.258 76.5107 103.591 76.4638 103.94C76.4186 104.276 76.366 104.643 76.3332 104.976L78.3235 105.173ZM78.1531 100.682C77.6126 99.79 76.7432 99.4753 76.0749 99.3338C75.7419 99.2634 75.408 99.2259 75.1537 99.1954C74.8708 99.1614 74.6999 99.1371 74.5794 99.1037L74.0441 101.031C74.3371 101.112 74.6638 101.151 74.9155 101.181C75.1957 101.215 75.433 101.242 75.6609 101.291C76.1142 101.386 76.3243 101.523 76.4423 101.718L78.1531 100.682ZM74.5543 99.097C73.382 98.804 72.2432 98.6744 71.193 98.5394L70.938 100.523C72.0316 100.664 73.0365 100.779 74.0692 101.037L74.5543 99.097ZM71.1919 98.5393C67.9334 98.124 64.9071 98.3666 61.7407 99.0597L62.1684 101.013C65.1576 100.359 67.9501 100.142 70.9391 100.523L71.1919 98.5393ZM61.7445 99.0589C58.2106 99.8184 54.555 100.866 51.0691 102.585L51.9538 104.379C55.236 102.76 58.7161 101.755 62.1647 101.014L61.7445 99.0589ZM51.0767 102.581C50.5843 102.819 50.084 103.138 49.6888 103.369L50.7003 105.095C51.1932 104.806 51.5504 104.573 51.9462 104.382L51.0767 102.581ZM51.1688 104.007C50.4769 101.019 49.3461 98.1159 48.3138 95.3531L46.4403 96.0531C47.4906 98.8641 48.5647 101.627 49.2203 104.458L51.1688 104.007ZM48.3139 95.3534C47.5601 93.3337 46.9282 90.7773 44.7402 89.0269L43.4908 90.5887C45.131 91.9008 45.5709 93.7238 46.4402 96.0528L48.3139 95.3534ZM44.743 89.0292C44.0745 88.4904 42.9725 88.0192 41.9265 87.9362C41.3939 87.894 40.7854 87.9449 40.2349 88.2259C39.6488 88.5251 39.2118 89.0447 39.0166 89.7584L40.9457 90.286C40.9955 90.1039 41.0695 90.0454 41.1443 90.0073C41.2546 89.9509 41.4567 89.9052 41.7682 89.93C42.4103 89.9809 43.1306 90.2984 43.488 90.5864L44.743 89.0292ZM39.0146 89.7658C38.8414 90.4183 38.9745 91.1002 39.1536 91.6568C39.3399 92.2361 39.6257 92.8264 39.9118 93.3589L41.6736 92.4123C41.4085 91.9189 41.1889 91.4527 41.0575 91.0443C40.9188 90.6132 40.9218 90.3764 40.9477 90.2786L39.0146 89.7658ZM39.9117 93.3588C40.0264 93.5723 40.1424 93.7817 40.2523 93.9797C40.3633 94.1799 40.4672 94.3667 40.5632 94.5448C40.7608 94.9115 40.8957 95.1886 40.967 95.3915L42.854 94.7285C42.7262 94.3649 42.5243 93.9682 42.3238 93.5961C42.2207 93.4047 42.1102 93.2059 42.0011 93.0093C41.8909 92.8107 41.781 92.6124 41.6737 92.4125L39.9117 93.3588ZM40.9647 95.3847C42.3392 99.3888 42.9868 103.617 43.632 107.888L45.6096 107.589C44.9686 103.347 44.2993 98.9387 42.8563 94.7353L40.9647 95.3847ZM43.6325 107.891C44.4025 112.889 44.5979 117.087 44.251 122.156L46.2463 122.293C46.6037 117.072 46.401 112.725 45.6092 107.586L43.6325 107.891ZM44.251 122.155C44.0919 124.456 43.4528 126.693 42.6521 128.68L44.5071 129.428C45.3601 127.311 46.0685 124.863 46.2462 122.293L44.251 122.155ZM42.6565 128.669C42.4415 129.185 42.1979 129.687 41.9257 130.174L43.6716 131.149C43.9812 130.595 44.2583 130.025 44.5026 129.438L42.6565 128.669ZM43.0895 129.705C37.7557 128.083 32.905 126.103 28.3792 123.628L27.4199 125.383C32.0816 127.932 37.0615 129.963 42.5078 131.618L43.0895 129.705ZM28.3792 123.628L27.2308 123.001L26.2715 124.756L27.4199 125.383L28.3792 123.628ZM27.2283 122.999C22.1825 120.26 16.2103 116.984 12.9735 112.158L11.3125 113.272C14.8745 118.583 21.336 122.076 26.274 124.757L27.2283 122.999ZM13.1401 112.792C13.1736 112.355 13.19 111.838 13.157 111.194L11.1596 111.297C11.1879 111.847 11.1736 112.279 11.146 112.639L13.1401 112.792ZM12.9867 111.805C13.2484 111.418 13.7761 111.19 14.6601 111.202C15.5188 111.213 16.464 111.456 17.1563 111.699L17.8179 109.812C17.0248 109.534 15.8493 109.218 14.6867 109.202C13.5495 109.187 12.1554 109.464 11.3299 110.685L12.9867 111.805ZM17.155 111.699C17.5906 111.852 18.0304 112.043 18.4992 112.255C18.9565 112.461 19.4535 112.691 19.951 112.892C20.9488 113.295 22.0873 113.641 23.3351 113.527L23.154 111.536C22.3806 111.606 21.5974 111.4 20.7002 111.038C20.2503 110.856 19.8066 110.65 19.3207 110.431C18.8464 110.217 18.3406 109.996 17.8191 109.812L17.155 111.699ZM23.3309 113.528C24.6557 113.413 25.6577 112.66 26.0986 111.59C26.5298 110.543 26.3775 109.311 25.6807 108.281L24.0241 109.402C24.3838 109.933 24.4 110.462 24.2493 110.828C24.1083 111.17 23.7782 111.482 23.1583 111.535L23.3309 113.528ZM25.687 108.29C25.0294 107.294 23.957 106.634 22.9848 106.149C22.4859 105.9 21.9736 105.679 21.5066 105.478C21.0284 105.273 20.6074 105.094 20.243 104.913L19.3555 106.706C19.7797 106.916 20.2584 107.119 20.7176 107.316C21.188 107.518 21.6509 107.719 22.0918 107.939C22.9992 108.392 23.6648 108.857 24.0178 109.392L25.687 108.29ZM20.2465 104.915C18.3276 103.955 15.9925 103.509 14.1767 102.994L13.6312 104.919C15.7048 105.506 17.6572 105.856 19.352 106.704L20.2465 104.915ZM14.1803 102.995C12.8459 102.612 11.4682 102.468 10.1302 102.436L10.0826 104.436C11.3172 104.465 12.512 104.597 13.6276 104.918L14.1803 102.995ZM10.9385 103.991C11.0023 103.895 11.054 103.807 11.0909 103.744C11.1305 103.676 11.1554 103.635 11.1835 103.593L9.5194 102.483C9.45562 102.579 9.40391 102.667 9.36701 102.73C9.32734 102.797 9.3025 102.839 9.27439 102.881L10.9385 103.991ZM11.1884 103.585C11.4284 103.218 11.735 102.774 11.9833 102.343L10.2509 101.344C10.0398 101.71 9.79515 102.061 9.51448 102.491L11.1884 103.585ZM11.9656 102.373C12.8325 100.983 13.7934 99.6455 14.7566 98.3306L13.1432 97.1487C12.177 98.4676 11.1779 99.8562 10.2686 101.314L11.9656 102.373ZM14.7505 98.3389C16.6393 95.8154 18.7084 93.384 20.9574 91.0897L19.5292 89.6897C17.2151 92.0504 15.0886 94.5496 13.1493 97.1405L14.7505 98.3389ZM20.9563 91.0909C22.7514 89.2656 24.6525 87.5455 26.6138 85.9614L25.3572 84.4055C23.3373 86.037 21.3796 87.8082 19.5303 89.6885L20.9563 91.0909ZM26.5825 85.9857C27.7495 85.1172 30.7027 83.4301 35.1885 84.2677L35.5556 82.3017C30.364 81.3323 26.8553 83.2897 25.3885 84.3812L26.5825 85.9857ZM35.1873 84.2675C40.0039 85.1733 43.4657 87.7377 52.7237 86.2784L52.4123 84.3028C43.6016 85.6916 40.9997 83.3255 35.5569 82.3019L35.1873 84.2675ZM52.7235 86.2785C57.4198 85.5394 60.0746 84.0527 62.5615 82.8197C64.9835 81.6189 67.2953 80.625 71.4943 80.625V78.625C66.8732 78.625 64.2468 79.7519 61.6731 81.0279C59.1642 82.2717 56.7659 83.6177 52.4126 84.3028L52.7235 86.2785ZM71.4943 80.625C75.6122 80.625 78.3781 82.2114 81.6229 84.01C84.8751 85.8127 88.516 87.7632 94.1545 88.0351L94.2509 86.0374C89.094 85.7887 85.7908 84.0336 82.5925 82.2608C79.387 80.4839 76.1963 78.625 71.4943 78.625V80.625ZM94.1566 88.0352C99.2218 88.2691 102.032 86.8551 104.631 85.6395C105.915 85.0393 107.102 84.5097 108.515 84.1994C109.916 83.8918 111.578 83.7924 113.778 84.1206L114.073 82.1425C111.655 81.7817 109.746 81.8814 108.086 82.246C106.438 82.608 105.075 83.224 103.784 83.8278C101.234 85.0201 98.7998 86.2475 94.2488 86.0373L94.1566 88.0352ZM113.779 84.1208C118.062 84.7529 120.353 87.0845 123.364 89.5465C126.393 92.0228 129.941 94.3909 136.481 94.3909V92.3909C130.571 92.3909 127.458 90.3108 124.63 87.9981C121.784 85.6711 119.022 82.873 114.071 82.1423L113.779 84.1208ZM136.481 94.3909C139.656 94.3909 142.149 94.1073 144.282 93.8373C146.434 93.5649 148.14 93.3198 149.86 93.3552C153.191 93.4238 156.685 94.5529 163.117 99.2371L164.295 97.6204C157.711 92.8261 153.818 91.4363 149.901 91.3556C147.998 91.3164 146.117 91.5891 144.031 91.8531C141.925 92.1195 139.53 92.3909 136.481 92.3909V94.3909ZM162.712 98.3222C162.675 98.669 162.585 99.0497 162.464 99.5033L164.397 100.019C164.521 99.5535 164.646 99.046 164.7 98.5353L162.712 98.3222ZM163.311 98.7681C161.485 98.9879 159.774 99.6679 158.33 100.837L159.588 102.391C160.717 101.477 162.068 100.932 163.55 100.754L163.311 98.7681ZM158.339 100.83C156.905 101.964 155.317 103.029 153.595 104.182L154.708 105.844C156.416 104.7 158.073 103.591 159.58 102.398L158.339 100.83Z" fill="white" mask="url(#path-2-inside-1_41_366)"/>
<mask id="mask0_41_366" style="mask-type:luminance" maskUnits="userSpaceOnUse" x="10" y="79" width="154" height="58">
<mask id="path-4-inside-2_41_366" fill="white">
<path d="M154.151 105.013C152.268 106.253 150.354 107.54 148.486 109.071C137.323 118.243 126.711 124.766 116.038 128.962C106.744 132.622 97.5868 134.873 88.8127 135.638C83.1011 136.159 77.068 136.189 70.8664 135.761C63.7768 135.255 56.5033 134.092 49.1839 132.346C50.118 130.279 50.8836 128.12 51.4655 125.93C52.1699 123.312 52.4149 119.897 52.1699 116.926C53.2571 117.294 54.3136 117.631 55.4008 118.029C58.8308 119.3 62.3221 120.127 65.798 120.157C68.4011 120.157 70.2693 117.707 72.3058 115.38C74.5261 112.822 76.8689 110.311 77.3283 105.074C77.4508 103.834 77.8643 102.104 77.2977 101.2C76.6393 100.113 75.1386 100.297 74.3118 100.067C73.2093 99.7916 72.1374 99.6691 71.0655 99.5312C67.9418 99.1331 65.0324 99.3628 61.9546 100.037C58.4633 100.787 54.8955 101.813 51.5114 103.482C51.0674 103.696 50.6386 103.972 50.1946 104.232C49.5208 101.323 48.4183 98.49 47.3771 95.7031C46.5655 93.5288 46.0296 91.3391 44.1155 89.8078C43.0896 88.9809 40.4711 88.2306 39.9811 90.0222C39.7821 90.7725 40.2414 91.8597 40.7927 92.8856C41.2368 93.7125 41.7114 94.4934 41.9105 95.06C43.3193 99.1638 43.9777 103.482 44.6208 107.739C45.4018 112.807 45.6008 117.079 45.2486 122.224C45.0802 124.659 44.4064 127.002 43.5796 129.054C43.3499 129.605 43.0896 130.141 42.7986 130.662C37.4086 129.023 32.4933 127.017 27.8996 124.506L26.7511 123.878C21.7593 121.168 15.5424 117.784 12.143 112.715C12.1736 112.317 12.1889 111.843 12.1583 111.245C13.2455 109.638 16.0018 110.235 17.4871 110.755C19.4011 111.429 21.2233 112.715 23.2446 112.532C25.1893 112.363 25.9089 110.403 24.8524 108.841C23.8418 107.31 21.3764 106.59 19.7993 105.809C17.9924 104.906 15.8486 104.508 13.9039 103.957C12.6789 103.604 11.3927 103.467 10.1064 103.436C10.1983 103.298 10.2596 103.176 10.3514 103.038C10.6118 102.64 10.8874 102.242 11.1171 101.843C12.0052 100.419 12.9852 99.0566 13.9499 97.7397C15.8639 95.1825 17.9618 92.7172 20.2433 90.3897C22.0655 88.5369 23.9949 86.7913 25.9855 85.1834C27.3024 84.2034 30.5333 82.3812 35.3721 83.2847C40.5018 84.2494 43.5336 86.7147 52.568 85.2906C61.6177 83.8666 62.6743 79.625 71.4943 79.625C80.3143 79.625 83.4074 86.5156 94.2027 87.0363C103.819 87.4803 104.692 81.7534 113.925 83.1316C123.159 84.4944 124.031 93.3909 136.481 93.3909C148.93 93.3909 150.691 88.9503 163.706 98.4287C163.66 98.8575 163.553 99.3016 163.431 99.7609C161.777 99.96 160.246 100.573 158.959 101.614C157.489 102.778 155.866 103.865 154.151 105.013Z"/>
</mask>
<path d="M154.151 105.013C152.268 106.253 150.354 107.54 148.486 109.071C137.323 118.243 126.711 124.766 116.038 128.962C106.744 132.622 97.5868 134.873 88.8127 135.638C83.1011 136.159 77.068 136.189 70.8664 135.761C63.7768 135.255 56.5033 134.092 49.1839 132.346C50.118 130.279 50.8836 128.12 51.4655 125.93C52.1699 123.312 52.4149 119.897 52.1699 116.926C53.2571 117.294 54.3136 117.631 55.4008 118.029C58.8308 119.3 62.3221 120.127 65.798 120.157C68.4011 120.157 70.2693 117.707 72.3058 115.38C74.5261 112.822 76.8689 110.311 77.3283 105.074C77.4508 103.834 77.8643 102.104 77.2977 101.2C76.6393 100.113 75.1386 100.297 74.3118 100.067C73.2093 99.7916 72.1374 99.6691 71.0655 99.5312C67.9418 99.1331 65.0324 99.3628 61.9546 100.037C58.4633 100.787 54.8955 101.813 51.5114 103.482C51.0674 103.696 50.6386 103.972 50.1946 104.232C49.5208 101.323 48.4183 98.49 47.3771 95.7031C46.5655 93.5288 46.0296 91.3391 44.1155 89.8078C43.0896 88.9809 40.4711 88.2306 39.9811 90.0222C39.7821 90.7725 40.2414 91.8597 40.7927 92.8856C41.2368 93.7125 41.7114 94.4934 41.9105 95.06C43.3193 99.1638 43.9777 103.482 44.6208 107.739C45.4018 112.807 45.6008 117.079 45.2486 122.224C45.0802 124.659 44.4064 127.002 43.5796 129.054C43.3499 129.605 43.0896 130.141 42.7986 130.662C37.4086 129.023 32.4933 127.017 27.8996 124.506L26.7511 123.878C21.7593 121.168 15.5424 117.784 12.143 112.715C12.1736 112.317 12.1889 111.843 12.1583 111.245C13.2455 109.638 16.0018 110.235 17.4871 110.755C19.4011 111.429 21.2233 112.715 23.2446 112.532C25.1893 112.363 25.9089 110.403 24.8524 108.841C23.8418 107.31 21.3764 106.59 19.7993 105.809C17.9924 104.906 15.8486 104.508 13.9039 103.957C12.6789 103.604 11.3927 103.467 10.1064 103.436C10.1983 103.298 10.2596 103.176 10.3514 103.038C10.6118 102.64 10.8874 102.242 11.1171 101.843C12.0052 100.419 12.9852 99.0566 13.9499 97.7397C15.8639 95.1825 17.9618 92.7172 20.2433 90.3897C22.0655 88.5369 23.9949 86.7913 25.9855 85.1834C27.3024 84.2034 30.5333 82.3812 35.3721 83.2847C40.5018 84.2494 43.5336 86.7147 52.568 85.2906C61.6177 83.8666 62.6743 79.625 71.4943 79.625C80.3143 79.625 83.4074 86.5156 94.2027 87.0363C103.819 87.4803 104.692 81.7534 113.925 83.1316C123.159 84.4944 124.031 93.3909 136.481 93.3909C148.93 93.3909 150.691 88.9503 163.706 98.4287C163.66 98.8575 163.553 99.3016 163.431 99.7609C161.777 99.96 160.246 100.573 158.959 101.614C157.489 102.778 155.866 103.865 154.151 105.013Z" fill="white"/>
<path d="M148.486 109.071L146.584 106.751L146.581 106.753L148.486 109.071ZM116.038 128.962L114.941 126.17L114.939 126.17L116.038 128.962ZM88.8127 135.638L88.5519 132.649L88.5404 132.651L88.8127 135.638ZM70.8664 135.761L70.6532 138.753L70.6595 138.753L70.8664 135.761ZM49.1839 132.346L46.4501 131.111L44.9541 134.421L48.488 135.264L49.1839 132.346ZM51.4655 125.93L48.5685 125.151L48.5661 125.16L51.4655 125.93ZM52.1699 116.926L53.1306 114.084L48.8047 112.622L49.18 117.173L52.1699 116.926ZM55.4008 118.029L56.4432 115.216L56.4324 115.212L55.4008 118.029ZM65.798 120.157L65.7716 123.157L65.7848 123.157H65.798V120.157ZM72.3058 115.38L74.5636 117.355L74.5711 117.347L72.3058 115.38ZM77.3283 105.074L74.3428 104.78L74.3412 104.796L74.3398 104.812L77.3283 105.074ZM77.2977 101.2L74.7316 102.754L74.7437 102.774L74.7561 102.794L77.2977 101.2ZM74.3118 100.067L75.1147 97.1766L75.0772 97.1662L75.0394 97.1568L74.3118 100.067ZM71.0655 99.5312L71.4481 96.5557L71.4448 96.5553L71.0655 99.5312ZM61.9546 100.037L62.5849 102.97L62.5961 102.967L61.9546 100.037ZM51.5114 103.482L52.8157 106.184L52.8271 106.178L52.8385 106.172L51.5114 103.482ZM50.1946 104.232L47.2719 104.909L48.1923 108.883L51.7117 106.82L50.1946 104.232ZM47.3771 95.7031L44.5665 96.7522L44.5668 96.7531L47.3771 95.7031ZM44.1155 89.8078L42.2329 92.1436L42.2414 92.1504L44.1155 89.8078ZM39.9811 90.0222L37.0874 89.2307L37.0844 89.2418L37.0814 89.2529L39.9811 90.0222ZM40.7927 92.8856L43.4357 91.4662L43.4354 91.4657L40.7927 92.8856ZM41.9105 95.06L44.748 94.0859L44.7445 94.0757L44.7409 94.0655L41.9105 95.06ZM44.6208 107.739L41.6545 108.187L41.6558 108.196L44.6208 107.739ZM45.2486 122.224L48.2415 122.431L48.2416 122.429L45.2486 122.224ZM43.5796 129.054L46.3488 130.208L46.3556 130.191L46.3621 130.175L43.5796 129.054ZM42.7986 130.662L41.9261 133.532L44.2385 134.235L45.4175 132.125L42.7986 130.662ZM27.8996 124.506L29.3386 121.874L29.3386 121.874L27.8996 124.506ZM26.7511 123.878L28.1901 121.246L28.1826 121.242L26.7511 123.878ZM12.143 112.715L9.15184 112.485L9.07206 113.522L9.6515 114.386L12.143 112.715ZM12.1583 111.245L9.67315 109.565L9.11085 110.396L9.16226 111.399L12.1583 111.245ZM17.4871 110.755L18.4832 107.926L18.4794 107.924L17.4871 110.755ZM23.2446 112.532L22.9857 109.543L22.973 109.544L23.2446 112.532ZM24.8524 108.841L22.3486 110.494L22.358 110.508L22.3675 110.522L24.8524 108.841ZM19.7993 105.809L18.4576 108.493L18.4681 108.498L19.7993 105.809ZM13.9039 103.957L13.075 106.84L13.0858 106.843L13.9039 103.957ZM10.1064 103.436L7.61029 101.772L4.58792 106.305L10.035 106.435L10.1064 103.436ZM10.3514 103.038L12.8476 104.702L12.855 104.691L12.8624 104.68L10.3514 103.038ZM11.1171 101.843L8.57154 100.256L8.54427 100.3L8.51851 100.344L11.1171 101.843ZM13.9499 97.7397L11.5482 95.942L11.5389 95.9544L11.5298 95.9668L13.9499 97.7397ZM20.2433 90.3897L18.1044 88.2861L18.101 88.2896L20.2433 90.3897ZM25.9855 85.1834L24.1945 82.7767L24.1468 82.8122L24.1005 82.8496L25.9855 85.1834ZM35.3721 83.2847L35.9265 80.3364L35.9227 80.3356L35.3721 83.2847ZM52.568 85.2906L52.1017 82.3271L52.1009 82.3272L52.568 85.2906ZM94.2027 87.0363L94.0582 90.0328L94.0643 90.0331L94.2027 87.0363ZM113.925 83.1316L113.482 86.0987L113.487 86.0994L113.925 83.1316ZM163.706 98.4287L166.689 98.7483L166.874 97.0243L165.472 96.0037L163.706 98.4287ZM163.431 99.7609L163.789 102.739L165.806 102.497L166.329 100.534L163.431 99.7609ZM158.959 101.614L160.821 103.966L160.834 103.956L160.847 103.945L158.959 101.614ZM152.501 102.508C150.612 103.752 148.583 105.112 146.584 106.751L150.387 111.391C152.124 109.968 153.923 108.755 155.801 107.519L152.501 102.508ZM146.581 106.753C135.597 115.778 125.254 122.116 114.941 126.17L117.136 131.754C128.168 127.417 139.048 120.708 150.39 111.389L146.581 106.753ZM114.939 126.17C105.876 129.739 97.0013 131.912 88.5519 132.649L89.0735 138.627C98.1722 137.833 107.611 135.504 117.137 131.753L114.939 126.17ZM88.5404 132.651C83.0058 133.155 77.134 133.187 71.0734 132.768L70.6595 138.753C77.002 139.192 83.1964 139.163 89.085 138.626L88.5404 132.651ZM71.0797 132.768C64.169 132.276 57.0574 131.14 49.8799 129.428L48.488 135.264C55.9492 137.044 63.3845 138.235 70.6532 138.753L71.0797 132.768ZM51.9178 133.581C52.9207 131.362 53.7413 129.047 54.3649 126.7L48.5661 125.16C48.0259 127.192 47.3153 129.196 46.4501 131.111L51.9178 133.581ZM54.3625 126.709C55.1709 123.704 55.4283 119.936 55.1597 116.68L49.18 117.173C49.4014 119.857 49.1689 122.919 48.5685 125.151L54.3625 126.709ZM51.2092 119.768C52.3603 120.157 53.3285 120.465 54.3692 120.846L56.4324 115.212C55.2988 114.797 54.1539 114.43 53.1306 114.084L51.2092 119.768ZM54.3585 120.842C57.9994 122.191 61.8448 123.122 65.7716 123.157L65.8244 117.157C62.7994 117.131 59.6623 116.408 56.4432 115.216L54.3585 120.842ZM65.798 123.157C68.1192 123.157 69.9135 122.044 71.2243 120.913C72.4788 119.83 73.6557 118.393 74.5636 117.355L70.0481 113.404C68.9194 114.694 68.1439 115.646 67.3045 116.37C66.5213 117.046 66.08 117.157 65.798 117.157V123.157ZM74.5711 117.347C76.8138 114.764 79.7663 111.613 80.3168 105.337L74.3398 104.812C73.9716 109.009 72.2385 110.881 70.0406 113.413L74.5711 117.347ZM80.3138 105.369C80.3377 105.128 80.3754 104.865 80.4282 104.472C80.4761 104.116 80.5333 103.671 80.5644 103.215C80.6147 102.48 80.6776 100.943 79.8393 99.6064L74.7561 102.794C74.5882 102.526 74.5761 102.339 74.5824 102.388C74.5876 102.43 74.5955 102.556 74.5784 102.807C74.5617 103.051 74.528 103.328 74.4816 103.673C74.4401 103.982 74.3802 104.401 74.3428 104.78L80.3138 105.369ZM79.8638 99.6462C78.901 98.0565 77.3723 97.5641 76.4889 97.3772C76.0508 97.2845 75.6202 97.237 75.3919 97.2096C75.0779 97.1719 75.0627 97.1622 75.1147 97.1766L73.5088 102.958C73.7653 103.029 74.0032 103.072 74.1849 103.101C74.3668 103.129 74.5456 103.151 74.6772 103.167C74.9834 103.204 75.1242 103.221 75.2468 103.247C75.3573 103.271 75.3089 103.274 75.1927 103.208C75.0478 103.126 74.8652 102.975 74.7316 102.754L79.8638 99.6462ZM75.0394 97.1568C73.7276 96.8288 72.4549 96.6852 71.4481 96.5557L70.6829 102.507C71.8199 102.653 72.6909 102.754 73.5842 102.978L75.0394 97.1568ZM71.4448 96.5553C67.9167 96.1057 64.6566 96.374 61.313 97.106L62.5961 102.967C65.4082 102.352 67.9668 102.161 70.6862 102.507L71.4448 96.5553ZM61.3242 97.1035C57.705 97.8813 53.8741 98.9715 50.1844 100.791L52.8385 106.172C55.9169 104.654 59.2216 103.692 62.5849 102.97L61.3242 97.1035ZM50.2072 100.78C49.6182 101.065 48.9748 101.47 48.6774 101.644L51.7117 106.82C52.3025 106.474 52.5166 106.328 52.8157 106.184L50.2072 100.78ZM53.1172 103.555C52.3892 100.412 51.2015 97.3676 50.1873 94.6531L44.5668 96.7531C45.6351 99.6124 46.6524 102.234 47.2719 104.909L53.1172 103.555ZM50.1877 94.6541C49.5492 92.9435 48.7253 89.6538 45.9896 87.4652L42.2414 92.1504C43.3338 93.0243 43.5818 94.114 44.5665 96.7522L50.1877 94.6541ZM45.9981 87.472C45.0183 86.6824 43.5347 86.0576 42.0847 85.9425C41.331 85.8827 40.3161 85.9389 39.3255 86.4446C38.2282 87.0048 37.428 87.9854 37.0874 89.2307L42.8749 90.8136C42.8374 90.9505 42.7549 91.1469 42.5921 91.3486C42.4287 91.5511 42.2354 91.6958 42.0536 91.7886C41.7239 91.9569 41.5196 91.9165 41.61 91.9237C41.6756 91.9289 41.818 91.9567 41.9935 92.0268C42.1771 92.1001 42.2576 92.1635 42.2329 92.1436L45.9981 87.472ZM37.0814 89.2529C36.7611 90.4603 37.0303 91.5872 37.2497 92.2693C37.491 93.0195 37.8429 93.734 38.15 94.3056L43.4354 91.4657C43.1912 91.0113 43.0378 90.6693 42.9614 90.4318C42.9253 90.3196 42.9259 90.2891 42.9297 90.3257C42.9333 90.3598 42.9489 90.535 42.8808 90.7915L37.0814 89.2529ZM38.1497 94.305C38.2717 94.5322 38.394 94.7528 38.5035 94.9501C38.6165 95.1539 38.7136 95.3287 38.8025 95.4935C38.891 95.6578 38.9582 95.7881 39.0088 95.8937C39.0334 95.9452 39.0513 95.9848 39.0637 96.014C39.0764 96.0437 39.0808 96.0564 39.0801 96.0545L44.7409 94.0655C44.5567 93.5412 44.2878 93.0248 44.0844 92.6473C43.9742 92.4428 43.857 92.2319 43.7499 92.039C43.6393 91.8396 43.5357 91.6525 43.4357 91.4662L38.1497 94.305ZM39.073 96.0341C40.3792 99.839 41.005 103.888 41.6545 108.187L47.5872 107.291C46.9504 103.076 46.2593 98.4885 44.748 94.0859L39.073 96.0341ZM41.6558 108.196C42.4041 113.052 42.5922 117.103 42.2556 122.019L48.2416 122.429C48.6094 117.056 48.3994 112.562 47.5858 107.282L41.6558 108.196ZM42.2558 122.017C42.1153 124.048 41.5454 126.075 40.797 127.932L46.3621 130.175C47.2675 127.928 48.0451 125.27 48.2415 122.431L42.2558 122.017ZM40.8103 127.9C40.6248 128.345 40.4146 128.778 40.1798 129.198L45.4175 132.125C45.7645 131.504 46.075 130.865 46.3488 130.208L40.8103 127.9ZM43.6711 127.791C38.4499 126.204 33.7284 124.273 29.3386 121.874L26.4606 127.138C31.2582 129.761 36.3674 131.842 41.9261 133.532L43.6711 127.791ZM29.3386 121.874L28.1901 121.246L25.3121 126.51L26.4606 127.138L29.3386 121.874ZM28.1826 121.242C23.0291 118.444 17.5461 115.385 14.6345 111.044L9.6515 114.386C13.5387 120.182 20.4894 123.892 25.3197 126.515L28.1826 121.242ZM15.1342 112.945C15.1737 112.432 15.1922 111.828 15.1544 111.092L9.16226 111.399C9.18573 111.857 9.17359 112.203 9.15184 112.485L15.1342 112.945ZM14.6435 112.926C14.5117 113.121 14.3422 113.208 14.2887 113.228C14.2702 113.235 14.3677 113.198 14.6336 113.202C15.1883 113.209 15.9032 113.379 16.4947 113.586L18.4794 107.924C17.5856 107.611 16.1797 107.222 14.7132 107.202C13.3228 107.184 11.0625 107.51 9.67315 109.565L14.6435 112.926ZM16.491 113.585C16.8406 113.708 17.2144 113.869 17.6776 114.078C18.1064 114.271 18.6568 114.526 19.2018 114.747C20.3001 115.19 21.794 115.676 23.5162 115.519L22.973 109.544C22.6739 109.571 22.2461 109.505 21.4495 109.183C21.047 109.021 20.6567 108.839 20.1422 108.608C19.6624 108.392 19.0906 108.139 18.4832 107.926L16.491 113.585ZM23.5034 115.52C25.5332 115.345 27.2071 114.15 27.9478 112.352C28.6596 110.624 28.3713 108.689 27.3372 107.16L22.3675 110.522C22.39 110.555 22.2701 110.382 22.4001 110.066C22.4637 109.912 22.5752 109.767 22.7206 109.663C22.7899 109.613 22.8548 109.582 22.9063 109.563C22.9574 109.545 22.9867 109.543 22.9857 109.543L23.5034 115.52ZM27.3562 107.189C26.394 105.731 24.9148 104.877 23.8777 104.36C23.3209 104.082 22.7592 103.84 22.2955 103.641C21.7984 103.427 21.4351 103.272 21.1304 103.121L18.4681 108.498C18.952 108.737 19.4883 108.965 19.9286 109.154C20.4024 109.357 20.8159 109.537 21.1988 109.728C22.0414 110.149 22.3002 110.42 22.3486 110.494L27.3562 107.189ZM21.1409 103.126C18.998 102.055 16.2802 101.512 14.7221 101.07L13.0858 106.843C15.4171 107.504 16.9868 107.757 18.4576 108.493L21.1409 103.126ZM14.7329 101.073C13.1799 100.627 11.6191 100.471 10.1779 100.437L10.035 106.435C11.1662 106.462 12.178 106.582 13.075 106.84L14.7329 101.073ZM12.6026 105.1C12.702 104.951 12.7806 104.816 12.8148 104.758C12.8572 104.686 12.8552 104.691 12.8476 104.702L7.85529 101.374C7.75585 101.523 7.67727 101.658 7.64314 101.716C7.6007 101.788 7.60273 101.783 7.61029 101.772L12.6026 105.1ZM12.8624 104.68C13.0616 104.375 13.4302 103.837 13.7156 103.343L8.51851 100.344C8.34461 100.646 8.16194 100.905 7.84054 101.396L12.8624 104.68ZM13.6626 103.431C14.487 102.109 15.4098 100.823 16.37 99.5126L11.5298 95.9668C10.5606 97.2898 9.52337 98.7297 8.57154 100.256L13.6626 103.431ZM16.3516 99.5374C18.19 97.0813 20.2017 94.7177 22.3857 92.4898L18.101 88.2896C15.7218 90.7167 13.5379 93.2837 11.5482 95.942L16.3516 99.5374ZM22.3822 92.4933C24.1233 90.723 25.9678 89.0541 27.8705 87.5173L24.1005 82.8496C22.022 84.5284 20.0077 86.3508 18.1044 88.2861L22.3822 92.4933ZM27.7765 87.5901C28.6437 86.9448 31.0414 85.5279 34.8215 86.2337L35.9227 80.3356C30.0253 79.2345 25.961 81.4621 24.1945 82.7767L27.7765 87.5901ZM34.8176 86.233C39.0081 87.0211 43.3298 89.7839 53.0351 88.254L52.1009 82.3272C43.7375 83.6455 41.9954 81.4777 35.9265 80.3364L34.8176 86.233ZM53.0344 88.2542C58.0737 87.4612 60.985 85.8336 63.4498 84.6116C65.7201 83.486 67.7175 82.625 71.4943 82.625V76.625C66.451 76.625 63.5101 77.8848 60.7847 79.236C58.2538 80.4908 56.112 81.696 52.1017 82.3271L53.0344 88.2542ZM71.4943 82.625C75.0281 82.625 77.3691 83.9388 80.6533 85.7593C83.9594 87.5918 87.938 89.7376 94.0582 90.0328L94.3472 84.0397C89.672 83.8143 86.7064 82.2544 83.5621 80.5115C80.396 78.7565 76.7804 76.625 71.4943 76.625V82.625ZM94.0643 90.0331C99.6438 90.2907 102.829 88.6901 105.478 87.4511C106.754 86.8545 107.767 86.4114 108.944 86.1529C110.086 85.9022 111.501 85.803 113.482 86.0987L114.368 80.1644C111.732 79.7711 109.577 79.871 107.657 80.2926C105.773 80.7064 104.235 81.4088 102.937 82.0161C100.437 83.1851 98.3779 84.2259 94.3411 84.0394L94.0643 90.0331ZM113.487 86.0994C117.101 86.6328 118.922 88.498 122.098 91.0948C125.327 93.7348 129.311 96.3909 136.481 96.3909V90.3909C131.201 90.3909 128.524 88.5988 125.896 86.4498C123.215 84.2576 119.983 80.9931 114.363 80.1637L113.487 86.0994ZM136.481 96.3909C139.781 96.3909 142.372 96.095 144.533 95.8214C146.751 95.5407 148.281 95.3231 149.819 95.3548C152.564 95.4113 155.659 96.2798 161.94 100.854L165.472 96.0037C158.738 91.0993 154.444 89.4488 149.943 89.3561C147.857 89.3131 145.8 89.6132 143.779 89.8689C141.702 90.1318 139.404 90.3909 136.481 90.3909V96.3909ZM160.723 98.1091C160.704 98.2919 160.65 98.5459 160.532 98.988L166.329 100.534C166.456 100.057 166.617 99.4231 166.689 98.7483L160.723 98.1091ZM163.072 96.7824C160.902 97.0437 158.83 97.8588 157.072 99.282L160.847 103.945C161.661 103.286 162.652 102.876 163.789 102.739L163.072 96.7824ZM157.097 99.2616C155.738 100.338 154.218 101.358 152.482 102.52L155.82 107.506C157.515 106.371 159.241 105.217 160.821 103.966L157.097 99.2616Z" fill="white" mask="url(#path-4-inside-2_41_366)"/>
</mask>
<g mask="url(#mask0_41_366)">
<path d="M10.3054 115.471C10.3757 115.542 10.4628 115.628 10.5667 115.728C10.8982 116.05 11.401 116.522 12.0763 117.112C13.4268 118.294 15.4665 119.95 18.2041 121.829C23.6792 125.586 31.9439 130.232 43.0692 133.751C55.3526 137.608 75.3468 139.154 89.1869 138.834C108.381 138.373 126.298 129.737 139.468 121.151C146.043 116.865 151.41 112.606 155.133 109.421C156.994 107.828 158.442 106.505 159.423 105.581C159.914 105.12 160.288 104.758 160.538 104.513C160.663 104.391 160.757 104.297 160.82 104.235L160.889 104.165L160.906 104.148L160.91 104.144L160.911 104.144L161.098 103.953L161.357 103.881L168.929 101.782L169.898 96.4328C169.876 96.4427 169.854 96.4527 169.831 96.4628C168.646 96.9935 166.906 97.7513 164.685 98.6627C160.243 100.485 153.872 102.923 146.148 105.39C130.708 110.319 109.82 115.374 88.0987 115.828M10.3054 115.471L88.0777 114.828M10.3054 115.471L9.33396 107.896M10.3054 115.471L8.14648 106.498L8.28636 107.589C8.51136 107.657 8.82035 107.749 9.21224 107.862C9.25197 107.873 9.29254 107.885 9.33396 107.896M88.0987 115.828L88.0777 114.828M88.0987 115.828C88.0987 115.828 88.0987 115.828 88.0987 115.828L88.0777 114.828M88.0987 115.828C62.5149 116.366 42.4712 114.278 28.8126 112.052C21.9833 110.94 16.7504 109.792 13.2193 108.922C11.5316 108.505 10.2326 108.152 9.33396 107.896M88.0777 114.828C42.6796 115.782 14.8012 108.448 9.19539 106.816L9.33396 107.896M170.115 95.2378C170.843 94.9063 171.225 94.7231 171.225 94.7231L171.006 95.9296L170.115 95.2378Z" stroke="white" stroke-width="2"/>
</g>
<path d="M24.6696 92.435L24.67 92.435C25.2618 92.3879 25.8162 92.7083 26.2352 93.2781C26.6541 93.8477 26.9326 94.6609 26.9688 95.5794C27.0018 96.502 26.7792 97.3513 26.3971 97.9804C26.0147 98.6101 25.477 99.0129 24.8802 99.0602C24.2915 99.103 23.7387 98.7844 23.3215 98.2171C22.9043 97.6498 22.6275 96.8389 22.5945 95.9159L22.5945 95.9159C22.5616 94.9978 22.7841 94.1461 23.1647 93.5146C23.5457 92.8823 24.0801 92.4779 24.6696 92.435Z" fill="white" stroke="white" stroke-width="0.125"/>
</svg>
