<svg width="152" height="152" viewBox="0 0 152 152" fill="none" xmlns="http://www.w3.org/2000/svg">
<path d="M10.6436 73.1769C11.1492 73.4457 11.6335 73.7133 12.1186 73.9814C12.9023 74.4145 13.688 74.8488 14.5687 75.2902C16.8417 76.4296 19.35 77.3776 23.1336 77.8645L23.229 77.8767H23.3251C42.9567 77.8767 58.261 73.9942 76.333 69.4095C79.488 68.6091 82.7274 67.7873 86.0888 66.961C90.002 67.6269 94.2271 67.6624 98.4684 67.1623C98.4684 67.1623 98.4685 67.1623 98.4685 67.1623L10.6436 73.1769ZM10.6436 73.1769C11.3827 76.2757 11.8814 79.1787 12.3396 81.8902L12.3937 82.2105C12.9873 85.7257 13.5186 88.8716 14.4201 91.8241C16.2282 97.7461 19.5428 102.952 28.1896 108.037C58.9988 122.727 92.1211 123.088 121.807 108.026C122.293 107.779 122.885 107.229 123.526 106.253C124.156 105.295 124.764 104.034 125.326 102.524C126.451 99.5059 127.334 95.6573 127.878 91.6552C128.422 87.6568 128.618 83.568 128.396 80.081C128.169 76.5151 127.519 73.8483 126.584 72.4682C124.431 69.2943 119.487 64.6193 116.043 61.5299L10.6436 73.1769ZM94.8098 9.44432L94.8099 9.44433C97.7521 9.46698 100.673 10.3083 103.594 11.298L103.594 11.298C104.703 11.6739 106.108 12.5688 107.592 13.9278C109.057 15.27 110.52 16.9926 111.761 18.916C114.284 22.8266 115.696 27.2535 114.801 30.868L114.401 32.4864L116.052 32.7145L140.551 36.0982C141.637 36.4204 142.031 36.77 142.15 36.9337C142.201 37.0042 142.261 37.0928 142.146 37.3999C142.007 37.7695 141.659 38.277 141.048 38.8694C140.524 39.3774 139.871 39.8866 139.152 40.359L114.752 42.8143L113.998 42.8902L113.612 43.5415C112.799 44.9113 111.599 47.0353 110.846 49.2995C110.26 51.0646 109.864 53.1522 110.353 55.0917C106.435 57.0566 101.93 58.3525 97.4905 58.876C93.6713 59.3262 89.9508 59.178 86.7783 58.5498C85.7179 55.4208 84.2097 52.1415 82.7018 48.8627C82.4415 48.2968 82.1813 47.7309 81.9233 47.1658C80.0123 42.9794 78.2045 38.7907 77.2227 34.6546C76.245 30.5359 76.1125 26.5702 77.4593 22.802C78.8019 19.0456 81.6789 15.3065 87.0499 11.7529L87.05 11.7529C89.6646 10.0227 92.2536 9.42443 94.8098 9.44432ZM109.132 76.0729L109.117 74.5876L51.6784 99.7227L51.9797 98.2532C51.9796 98.2532 51.9796 98.2532 51.9796 98.2532C45.1669 96.8565 39.8649 94.1492 37.2087 90.9451L36.2513 89.7903L35.0965 90.7476L30.983 94.1578L29.8283 95.1151L30.7856 96.2699C35.2581 101.665 42.4284 104.813 50.3037 106.428C58.2203 108.05 67.1501 108.126 75.6502 106.649C84.1394 105.173 92.3318 102.139 98.5957 97.1647C104.898 92.1606 109.219 84.9513 109.132 76.0729ZM46.992 142.556C48.6483 140.589 50.5699 139.171 52.8307 138.167L53.7159 137.774L53.7217 136.805L53.7896 125.45C54.5617 125.605 55.3432 125.753 56.1301 125.895L56.0753 135.185L56.0646 136.996L57.846 136.67C59.2671 136.409 60.8053 136.238 62.4704 136.144L63.8769 136.065L63.8861 134.657L63.9356 127.067C64.7155 127.162 65.4961 127.251 66.2775 127.333L66.2305 134.613L66.2213 136.03L67.6357 136.119C74.526 136.556 79.2108 139.28 83.015 142.556H46.992ZM109.397 27.0067C109.397 23.7191 106.732 21.0536 103.444 21.0536C100.156 21.0536 97.4905 23.7185 97.4905 27.0067C97.4905 30.2949 100.156 32.9598 103.444 32.9598C106.732 32.9598 109.397 30.2947 109.397 27.0067Z" stroke="white" stroke-width="3"/>
</svg>
