<svg width="76" height="76" viewBox="0 0 76 76" fill="none" xmlns="http://www.w3.org/2000/svg">
<path d="M33.5667 42.4333L26.7583 35.625C26.1778 35.0444 25.4389 34.7542 24.5417 34.7542C23.6444 34.7542 22.9056 35.0444 22.325 35.625C21.7444 36.2056 21.4542 36.9444 21.4542 37.8417C21.4542 38.7389 21.7444 39.4778 22.325 40.0583L31.35 49.0833C31.9833 49.7167 32.7222 50.0333 33.5667 50.0333C34.4111 50.0333 35.15 49.7167 35.7833 49.0833L53.675 31.1917C54.2556 30.6111 54.5458 29.8722 54.5458 28.975C54.5458 28.0778 54.2556 27.3389 53.675 26.7583C53.0944 26.1778 52.3556 25.8875 51.4583 25.8875C50.5611 25.8875 49.8222 26.1778 49.2417 26.7583L33.5667 42.4333ZM15.8333 66.5C14.0917 66.5 12.6012 65.8804 11.362 64.6412C10.1228 63.4019 9.50211 61.9104 9.5 60.1667V15.8333C9.5 14.0917 10.1207 12.6012 11.362 11.362C12.6033 10.1228 14.0938 9.50211 15.8333 9.5H60.1667C61.9083 9.5 63.3998 10.1207 64.6412 11.362C65.8825 12.6033 66.5021 14.0938 66.5 15.8333V60.1667C66.5 61.9083 65.8804 63.3998 64.6412 64.6412C63.4019 65.8825 61.9104 66.5021 60.1667 66.5H15.8333Z" fill="white"/>
</svg>
