<svg width="77" height="77" viewBox="0 0 77 77" fill="none" xmlns="http://www.w3.org/2000/svg">
<g clip-path="url(#clip0_42_792)">
<mask id="mask0_42_792" style="mask-type:luminance" maskUnits="userSpaceOnUse" x="0" y="0" width="77" height="77">
<path d="M0 0H77V77H0V0Z" fill="white"/>
<path fill-rule="evenodd" clip-rule="evenodd" d="M12.5859 38.5C12.5859 45.3727 15.3161 51.9639 20.1758 56.8236C25.0355 61.6833 31.6267 64.4135 38.4994 64.4135C45.3721 64.4135 51.9633 61.6833 56.823 56.8236C61.6827 51.9639 64.4129 45.3727 64.4129 38.5C64.4129 31.6273 61.6827 25.0361 56.823 20.1764C51.9633 15.3167 45.3721 12.5865 38.4994 12.5865C31.6267 12.5865 25.0355 15.3167 20.1758 20.1764C15.3161 25.0361 12.5859 31.6273 12.5859 38.5ZM59.9706 38.5C59.9706 44.1945 57.7084 49.6558 53.6818 53.6824C49.6552 57.709 44.1939 59.9712 38.4994 59.9712C32.8049 59.9712 27.3436 57.709 23.317 53.6824C19.2904 49.6558 17.0282 44.1945 17.0282 38.5C17.0282 32.8055 19.2904 27.3442 23.317 23.3176C27.3436 19.291 32.8049 17.0289 38.4994 17.0289C44.1939 17.0289 49.6552 19.291 53.6818 23.3176C57.7084 27.3442 59.9706 32.8055 59.9706 38.5Z" fill="black"/>
<path fill-rule="evenodd" clip-rule="evenodd" d="M27.3945 38.5C27.3945 51.892 31.8102 62.9326 38.5003 62.9326C45.1904 62.9326 49.6061 51.892 49.6061 38.5C49.6061 25.1079 45.1904 14.0673 38.5003 14.0673C31.8102 14.0673 27.3945 25.1079 27.3945 38.5ZM45.1638 38.5C45.1638 49.6413 41.6247 58.4903 38.5003 58.4903C35.3759 58.4903 31.8368 49.6413 31.8368 38.5C31.8368 27.3586 35.3759 18.5096 38.5003 18.5096C41.6247 18.5096 45.1638 27.3586 45.1638 38.5Z" fill="black"/>
<path d="M19.5512 25.0753L22.5305 21.7821C22.8266 22.0506 23.1475 22.3142 23.493 22.5728C27.2571 25.3922 33.2661 27.1336 39.8259 27.1336C45.4261 27.1336 50.6444 25.869 54.4292 23.7041C55.3433 23.1809 56.1518 22.6182 56.8547 22.0161L59.7393 25.3952C58.8192 26.183 57.7846 26.9036 56.6356 27.5571C52.1459 30.1277 46.1695 31.573 39.8259 31.573C32.3569 31.573 25.418 29.565 20.8276 26.1267C20.386 25.7962 19.9601 25.4454 19.5512 25.0753ZM19.5512 51.972L22.5305 55.2653C22.8266 54.9967 23.1475 54.7332 23.493 54.4745C27.2571 51.6551 33.2661 49.9138 39.8259 49.9138C45.4261 49.9138 50.6444 51.1783 54.4292 53.3432C55.3433 53.8664 56.1518 54.4291 56.8547 55.0313L59.7393 51.6522C58.7727 50.8385 57.7338 50.1148 56.6356 49.4903C52.1459 46.9196 46.1695 45.4744 39.8259 45.4744C32.3569 45.4744 25.418 47.4823 20.8276 50.9207C20.386 51.2511 19.9601 51.602 19.5512 51.972ZM14.0664 40.7211V36.2788H62.9318V40.7211H14.0664Z" fill="black"/>
</mask>
<g mask="url(#mask0_42_792)">
<path d="M38.5 77C59.763 77 77 59.763 77 38.5C77 17.237 59.763 0 38.5 0C17.237 0 0 17.237 0 38.5C0 59.763 17.237 77 38.5 77Z" fill="white"/>
</g>
</g>
<defs>
<clipPath id="clip0_42_792">
<rect width="77" height="77" fill="white"/>
</clipPath>
</defs>
</svg>
