<svg width="94" height="94" viewBox="0 0 94 94" fill="none" xmlns="http://www.w3.org/2000/svg">
<path d="M60.707 37.7175C55.6326 40.4219 51.0082 43.8968 46.9987 48.0184C43.011 43.8721 38.3824 40.3941 33.2904 37.7175C34.2304 26.8684 38.852 16.215 47.2337 7.83337C55.537 16.1367 59.9629 26.79 60.707 37.7175ZM46.9987 60.5125C55.4195 47.6659 69.7937 39.1667 86.1654 39.1667C86.1654 78.3334 49.662 85.6967 46.9987 86.1667C44.3354 85.7359 7.83203 78.3334 7.83203 39.1667C24.2037 39.1667 38.5779 47.6659 46.9987 60.5125ZM47.1945 20.3275C44.6095 24.4009 42.8079 28.905 41.8287 33.605L46.9987 37.4042L52.2862 33.5659C51.3854 28.8659 49.662 24.3617 47.1945 20.3275ZM46.9987 78.2159C46.9987 78.2159 70.4987 74.4167 77.3137 47.9792C54.832 54.8334 46.9987 74.8084 46.9987 74.8084C46.9987 74.8084 35.2487 50.9167 16.6837 48.0184C23.4987 74.4167 46.9987 78.2159 46.9987 78.2159Z" fill="white"/>
</svg>
