<svg width="179" height="72" viewBox="0 0 179 72" fill="none" xmlns="http://www.w3.org/2000/svg">
<path fill-rule="evenodd" clip-rule="evenodd" d="M20.0184 11.2639C23.7961 17.4596 27.0638 22.7177 27.2789 22.9503C27.4952 23.1829 28.8199 21.1432 30.2221 18.418L32.7734 13.4631L23.747 6.73154C18.7821 3.02968 14.3666 0 13.934 0C13.5015 0 16.2395 5.06814 20.0184 11.2639ZM39.1465 13.1343C31.7399 21.7533 30.5097 23.765 32.1061 24.6503C33.1703 25.2396 35.7363 25.5514 37.8083 25.3431C41.393 24.9815 41.7457 24.4359 45.1068 14.0573C47.0485 8.05885 48.5207 3.04795 48.3794 2.92131C48.2369 2.79466 44.0819 7.39033 39.1465 13.1343ZM8.48133 24.5589C3.58654 28.0197 -0.225563 31.0433 0.0103895 31.2771C0.559716 31.8214 23.0047 26.7788 25.1848 25.6208C26.3953 24.9778 25.8066 23.8977 22.9396 21.5073C20.8012 19.7246 18.6764 18.2658 18.2168 18.2658C17.7572 18.2658 13.3761 21.0982 8.48133 24.5589ZM23.5417 29.308C21.514 30.5939 19.3069 31.8311 18.6359 32.0564C17.9329 32.2927 18.9517 37.2256 21.0397 43.7015C23.5172 51.3828 24.9157 54.242 25.4588 52.7369C26.2527 50.5389 28.1895 26.7106 27.5603 26.8787C27.3784 26.9274 25.5695 28.0209 23.5417 29.308ZM30.3008 28.4642C30.3008 29.3847 30.6461 31.8506 31.0689 33.9439L31.8369 37.7493L44.2797 37.703L56.7226 37.6567L43.8533 32.2232C36.7747 29.235 30.8305 26.7898 30.6424 26.7898C30.4544 26.7898 30.3008 27.5436 30.3008 28.4642ZM32.3494 43.4323C31.8984 43.878 31.5297 45.5219 31.5297 47.0855C31.5297 49.5879 32.1147 49.9264 36.4454 49.9264H41.3611V60.9626V72L45.355 71.6176L49.349 71.2365L49.7042 60.5815L50.0594 49.9264H54.3126C58.2194 49.9264 58.5659 49.6281 58.5659 46.2733V42.6201H45.8675C38.8823 42.6201 32.7992 42.9854 32.3494 43.4323ZM62.7836 44.2251C62.4419 45.1067 62.3203 51.546 62.5144 58.5333L62.8671 71.2365H74.5419C86.1761 71.2365 86.2166 71.2255 86.2166 68.1922C86.2166 65.3086 85.8123 65.1284 78.5359 64.785C71.8616 64.4709 70.8551 64.1116 70.8551 62.0452C70.8551 59.9763 71.7289 59.6682 77.6142 59.6682C84.0046 59.6682 84.3732 59.5026 84.3732 56.6239C84.3732 53.7403 84.0107 53.5796 77.5245 53.5796C71.665 53.5796 70.7335 53.2715 71.0837 51.4486C71.4069 49.7681 72.9836 49.2408 78.5482 48.9523C85.1143 48.6125 85.6021 48.3811 85.6021 45.6035C85.6021 42.6579 85.4621 42.6201 74.5038 42.6201C66.4544 42.6201 63.2334 43.0609 62.7836 44.2251ZM96.9586 44.2336C92.4214 46.7311 90.0447 51.177 90.0484 57.1645C90.0533 67.2813 96.515 72.7282 107.111 71.5446C110.131 71.2073 114.022 70.009 115.757 68.8826C118.516 67.0914 118.865 66.1184 118.54 61.1209L118.169 55.4062L111.717 55.0384C105.522 54.6853 105.265 54.7936 105.265 57.7783C105.265 60.2807 105.862 60.8859 108.337 60.8859C110.027 60.8859 111.409 61.446 111.409 62.1292C111.409 64.5951 105.498 66.2524 102.129 64.7314C99.2653 63.4394 99.0244 62.76 99.3636 56.949C99.6966 51.2355 100.084 50.461 103.134 49.404C105.734 48.5017 106.972 48.66 108.401 50.0762C110.618 52.273 117.554 51.6605 117.554 49.2676C117.554 48.3872 116.097 46.5314 114.316 45.1444C110.59 42.2402 101.454 41.7604 96.9586 44.2336ZM123.699 57.2327V71.8453H135.373H147.048V68.1922V64.539H139.675C133.121 64.539 132.301 64.2687 132.301 62.1036C132.301 59.9629 133.121 59.6682 139.06 59.6682C145.451 59.6682 145.819 59.5026 145.819 56.6239C145.819 53.7452 145.451 53.5796 139.06 53.5796C133.121 53.5796 132.301 53.2849 132.301 51.1441C132.301 48.979 133.121 48.7087 139.675 48.7087C146.72 48.7087 147.048 48.5735 147.048 45.6644C147.048 42.6311 147.008 42.6201 135.373 42.6201H123.699V57.2327ZM151.964 57.2327V71.8453H156.206H160.449L160.814 64.4112L161.181 56.977L166.107 64.1068C170.189 70.0139 171.717 71.3023 175.017 71.6176L179 72V57.2327V42.4655L175.006 42.8478C171.093 43.2217 171 43.3702 170.398 50.2065L169.783 57.1852L165.039 49.9021C160.779 43.3605 159.872 42.6201 156.13 42.6201H151.964V57.2327Z" fill="white"/>
</svg>
