<svg width="286" height="149" viewBox="0 0 286 149" fill="none" xmlns="http://www.w3.org/2000/svg">
<path fill-rule="evenodd" clip-rule="evenodd" d="M125.961 1.9472C117.135 5.13022 109.866 11.8524 108.216 18.3579C106.085 26.7615 103.01 28.7183 87.5994 31.4816C65.221 35.4943 35.3231 44.7595 20.9434 52.1364C14.3334 55.5274 6.36912 64.0387 3.02099 71.2908C-1.01847 80.0395 -1.00491 96.9483 3.04933 105.111C9.91443 118.932 18.2299 124.477 46.5813 134.14C76.9339 144.484 106.079 149 142.498 149C184.757 149 215.213 143.604 251.571 129.675C264.887 124.574 267.105 123.274 273.862 116.619C282.952 107.664 286.034 100.163 286 87.0761C285.959 71.259 276.447 57.2089 261.146 50.3631C244.591 42.9569 215.887 34.4652 195.187 30.8514C182.909 28.7073 179.97 26.8668 178.184 20.2021C176.157 12.6356 171.824 7.69279 163.796 3.79265C157.675 0.81889 155.042 0.312251 144.377 0.0540356C135.016 -0.172361 130.572 0.285328 125.961 1.9472ZM160.835 5.86693C169.809 9.70099 174.552 15.4111 174.552 22.3829C174.552 27.0724 173.892 28.503 169.899 32.468C157.622 44.6604 126.434 44.4205 115.495 32.047C110.685 26.6073 109.754 22.7329 111.906 17.117C116.816 4.30663 143.06 -1.72777 160.835 5.86693ZM124.85 11.5305C122.491 13.8728 124.296 17.1342 128.958 18.9527C131.669 20.01 133.887 21.6854 133.887 22.6754C133.887 24.1366 134.234 24.1892 135.735 22.952C139.134 20.1507 137.914 16.9445 132.654 14.8543C129.943 13.7774 127.725 12.4055 127.725 11.8047C127.725 10.5234 126.027 10.3618 124.85 11.5305ZM149.17 12.4214C148.807 13.3601 148.685 16.2469 148.9 18.8364C149.176 22.1553 149.926 23.663 151.447 23.9493C153.292 24.2969 153.603 23.3693 153.603 17.5343C153.603 12.2256 153.186 10.7143 151.717 10.7143C150.678 10.7143 149.532 11.4828 149.17 12.4214ZM156.971 13.9132C156.105 18.4167 157.716 23.4916 160.162 23.9591C162.607 24.4278 163.011 20.546 160.751 18.3016C159.617 17.1758 159.611 16.4966 160.721 15.394C161.78 14.3427 161.806 13.5167 160.817 12.3345C158.783 9.90047 157.655 10.3631 156.971 13.9132ZM141.324 18.1291C141.3 19.1779 142.095 21.1053 143.09 22.4123C145.406 25.4546 145.433 23.2848 143.129 19.2806C142 17.3202 141.352 16.9065 141.324 18.1291ZM124.047 22.4967C124.02 24.5 127.397 26.9684 128.903 26.0444C129.611 25.61 130.19 26.1142 130.19 27.1629C130.19 29.4196 132.588 29.7671 132.8 27.5411C132.88 26.7003 133.369 27.6635 133.887 29.6827C134.705 32.8767 134.847 32.9758 134.974 30.4475C135.103 27.8629 135.545 27.6255 138.97 28.3059C141.088 28.7269 143.824 29.0708 145.05 29.0708C146.465 29.0708 147.475 30.193 147.818 32.1449C148.333 35.0758 148.351 35.0648 148.208 31.9222C148.066 28.7808 147.528 28.5115 136.967 26.2794C130.868 24.9907 125.469 23.3019 124.971 22.5261C124.317 21.5067 124.06 21.4981 124.047 22.4967ZM139.432 22.952C139.851 23.625 140.438 24.1757 140.737 24.1757C141.037 24.1757 141.281 23.625 141.281 22.952C141.281 22.2789 140.693 21.7282 139.976 21.7282C139.258 21.7282 139.013 22.2789 139.432 22.952ZM116.104 26.042C113.768 27.7956 113.777 27.885 116.532 30.7987C123.117 37.7583 140.022 41.6046 152.42 38.9649C159.766 37.3997 171.192 31.4253 168.526 30.543C167.617 30.2419 166.502 30.5932 166.048 31.3213C163.633 35.2019 146.797 38.0728 144.799 34.9449C144.017 33.7223 143.778 33.7076 143.764 34.8837C143.744 36.5003 138.873 36.887 134.195 35.6424C132.67 35.2361 131.422 34.0748 131.422 33.0615C131.422 31.604 131.055 31.522 129.662 32.6687C128.221 33.8569 127.81 33.4984 127.383 30.6764L126.863 27.2351L126.678 30.6005C126.487 34.0674 124.319 34.9889 121.932 32.6185C121.064 31.7557 120.944 29.9947 121.6 27.7234C122.441 24.8072 122.255 24.1831 120.553 24.2149C119.415 24.2357 117.412 25.0581 116.104 26.042ZM151.139 29.9433C152.155 30.3178 153.681 31.1671 154.528 31.8328C155.627 32.6956 156.068 32.4741 156.068 31.0557C156.068 29.6827 155.023 29.1002 152.679 29.1675C150.748 29.2225 150.085 29.5566 151.139 29.9433ZM139.374 31.4253C139.761 32.0482 139.101 32.758 137.906 33.0052C136.126 33.3723 136.234 33.5889 138.508 34.2069C140.679 34.7968 141.281 34.4541 141.281 32.6271C141.281 31.3445 140.693 30.2946 139.976 30.2946C139.258 30.2946 138.987 30.8036 139.374 31.4253ZM143.421 50.8698C145.458 52.3101 148.387 56.3694 149.964 59.9366C152.359 65.3518 152.833 68.5728 152.903 79.8571L152.987 93.3186L139.74 93.6661L126.493 94.0137L126.511 102.844C126.536 115.189 129.867 120.999 134.36 116.537C135.72 115.186 136.357 112.358 136.37 107.611C136.396 98.0595 137.029 97.3962 145.708 97.8404L152.987 98.2137L152.863 104.968C152.791 108.9 151.668 114.126 150.174 117.478C146.738 125.193 141.698 128.185 132.136 128.191C125.11 128.196 124.643 127.994 119.607 122.775C112.362 115.266 109.951 104.624 110.758 83.7365C111.567 62.8088 115.754 52.7054 125.262 48.7355C129.898 46.7995 139.214 47.8948 143.421 50.8698ZM183.008 49.4612C194.586 50.74 200.431 58.5673 200.431 72.7911C200.431 77.2738 199.618 80.0921 197.387 83.3571L194.343 87.8116L197.387 92.2661C200.18 96.3523 200.431 97.86 200.431 110.566V124.413L196.426 125.073C194.223 125.435 190.757 125.873 188.724 126.046L185.027 126.36L184.678 111.751C184.474 103.199 183.75 96.4502 182.934 95.4749C182.168 94.557 180.108 93.9721 178.355 94.174L175.169 94.5424L174.552 111.063L173.936 127.584L166.234 127.949L158.533 128.312V88.6854C158.533 66.8913 158.949 48.6437 159.457 48.1359C160.313 47.2804 166.329 47.6194 183.008 49.4612ZM105.544 88.6365V127.254L98.4583 126.379C94.5618 125.898 90.9561 125.252 90.4484 124.942C89.9407 124.634 89.5242 117.254 89.5242 108.543V92.7067H85.2112H80.8982L80.8797 106.474C80.8686 114.047 80.3954 120.97 79.8273 121.861C79.0916 123.013 77.4108 123.231 73.9924 122.617C64.2536 120.868 64.8784 123.262 64.8784 87.7296C64.8784 51.9136 64.1686 54.3257 74.7367 54.2155L80.282 54.158L80.6295 68.5373L80.9758 82.9166H85.2506H89.5242V67.6917C89.5242 56.8393 89.9666 52.1914 91.0646 51.5086C92.8477 50.3998 103.249 48.9154 104.62 49.575C105.128 49.8185 105.544 67.3967 105.544 88.6365ZM219.859 87.9952L220.187 120.552L214.692 121.927C204.539 124.466 205.36 127.396 205.36 88.6279C205.36 69.5567 205.664 53.6526 206.035 53.283C206.407 52.9134 209.595 53.2475 213.121 54.0246L219.531 55.4381L219.859 87.9952ZM242.298 61.5043C257.105 65.916 261.655 68.3562 264.183 73.2439C266.297 77.3264 266.311 105.425 264.202 107.069C261.905 108.858 251.258 112.181 250.436 111.364C250.044 110.974 249.722 102.046 249.722 91.5233C249.722 71.7301 249.186 69.4551 244.516 69.4551C240.796 69.4551 239.864 74.7112 239.864 95.689V115.645L233.394 117.471C229.837 118.476 226.508 119.064 226.001 118.779C225.493 118.494 225.076 104.527 225.076 87.7394C225.076 64.1183 225.425 57.226 226.617 57.2542C227.465 57.275 234.521 59.1877 242.298 61.5043ZM127.645 61.7099C126.956 63.5076 126.555 68.8775 126.752 73.6416L127.109 82.3047L131.73 82.684L136.351 83.0646V72.2208C136.351 65.4191 135.801 60.8312 134.873 59.9097C132.348 57.4022 128.972 58.243 127.645 61.7099ZM175.703 62.9385C175.013 64.7387 174.612 69.832 174.809 74.2584C175.144 81.743 175.379 82.334 178.18 82.7269C180.031 82.9863 181.812 82.3071 182.801 80.9634C184.72 78.358 184.948 65.3971 183.135 62.0317C181.26 58.5526 177.192 59.0482 175.703 62.9385ZM55.6325 63.6422C58.9547 66.4887 61.5339 74.2523 59.9837 76.7427C59.4994 77.521 55.9652 78.4804 52.1315 78.8732C45.3613 79.5671 45.1617 79.5022 45.1617 76.5909C45.1617 74.9425 44.3619 72.5256 43.386 71.2186C39.662 66.2391 33.4463 74.8348 36.2892 81.032C37.5375 83.7524 38.4777 84.1403 43.8222 84.1403C47.1814 84.1403 51.3244 84.6665 53.0274 85.309C62.6886 88.9571 63.1458 109.317 53.6756 114.18C49.2948 116.429 47.1445 116.411 39.1469 114.053C30.8831 111.615 20.5158 102.204 20.5158 97.1404C20.5158 93.8387 20.6169 93.7934 26.3692 94.5583C34.8831 95.6902 35.052 95.7992 36.4839 101.085C38.755 109.458 45.1617 108.755 45.1617 100.134C45.1617 93.4177 43.2258 91.7962 34.5295 91.2296C24.5134 90.5761 20.5158 87.9756 20.5158 82.115C20.5158 74.5558 27.8135 66.1534 37.7679 62.252C43.577 59.9746 52.1278 60.6403 55.6325 63.6422ZM272.904 70.3595C272.286 73.5486 268.207 73.9047 268.207 70.7682C268.207 69.017 268.998 68.2313 270.761 68.2313C272.525 68.2313 273.189 68.891 272.904 70.3595Z" fill="white"/>
</svg>
