<svg width="182" height="113" viewBox="0 0 182 113" fill="none" xmlns="http://www.w3.org/2000/svg">
<path fill-rule="evenodd" clip-rule="evenodd" d="M83.0969 0.680413C69.2406 2.98239 58.3257 8.77261 48.7671 18.8918L43.0688 24.9254H30.7925C13.8119 24.9254 7.45629 27.7152 2.4927 37.3478C-0.823313 43.7804 -0.833141 68.2809 2.47673 75.418C7.03365 85.2452 13.5588 88.1932 30.7544 88.1932H42.9926L50.0706 95.5408C72.4928 118.82 109.673 118.82 132.095 95.5408L139.173 88.1932H151.411C168.35 88.1932 174.712 85.3973 179.673 75.7708C181.576 72.0782 182 68.5814 182 56.5593C182 39.6729 180.344 34.8134 172.59 28.9502C168.321 25.7223 167.269 25.5118 153.524 25.1273L138.975 24.721L132.181 17.6666C119.273 4.26599 100.542 -2.21652 83.0969 0.680413ZM113.414 11.3106C119.295 14.1212 123.68 17.4622 128.915 23.1198L136.216 31.0088L150.2 31.0137C172.541 31.021 175.857 34.3231 175.857 56.5593C175.857 78.7955 172.541 82.0976 150.2 82.1049L136.216 82.1098L128.938 89.9757C118.489 101.267 109.258 105.574 94.0954 106.231C84.8575 106.631 81.2675 106.24 74.9266 104.145C65.8165 101.134 56.4361 94.4896 51.1838 87.3269L47.4672 82.2582L33.606 82.184C9.91105 82.0575 6.32105 78.8016 6.31368 57.4329C6.30508 34.2063 9.5265 31.021 33.031 31.0137C41.3082 31.0113 48.0815 30.5599 48.0815 30.0111C48.0815 28.0498 57.0012 18.741 62.4169 15.0507C72.1758 8.40153 79.0867 6.58014 92.9258 7.01085C103.811 7.34787 106.147 7.8382 113.414 11.3106ZM81.6631 18.2871C81.6631 19.2617 82.1238 20.0586 82.6878 20.0586C83.2505 20.0586 83.7112 19.544 83.7112 18.9137C83.7112 18.2835 83.2505 17.4865 82.6878 17.1422C82.1238 16.7979 81.6631 17.3126 81.6631 18.2871ZM85.0369 18.3346C85.0958 19.752 85.387 20.0404 85.7789 19.0707C86.134 18.1922 86.0898 17.1422 85.6819 16.7383C85.274 16.3343 84.984 17.0522 85.0369 18.3346ZM87.397 17.6982C87.397 18.1837 88.2263 18.8967 89.2399 19.2824C90.2965 19.6839 91.0828 19.3067 91.0828 18.3978C91.0828 17.5267 90.2535 16.8137 89.2399 16.8137C88.2263 16.8137 87.397 17.2116 87.397 17.6982ZM95.9973 18.3054C95.9973 19.3481 96.5588 19.8579 97.2456 19.4381C97.9324 19.0171 98.1768 18.1642 97.7874 17.5413C96.7345 15.8537 95.9973 16.1676 95.9973 18.3054ZM72.6537 20.0282C72.6537 20.6803 71.1241 20.9115 69.2554 20.5417C66.8792 20.0708 64.8459 20.656 62.4931 22.4896C58.838 25.3366 51.7673 34.9071 51.7673 37.0071C51.7673 37.7542 54.3216 38.309 57.7544 38.309C63.288 38.309 64.1308 37.8892 68.9114 32.7536C71.8441 29.6023 73.7951 26.456 73.4191 25.4851C73.0542 24.5433 73.6403 23.2828 74.7202 22.6842C75.8002 22.0856 76.2978 20.976 75.8247 20.2192C74.7718 18.5305 72.6537 18.4039 72.6537 20.0282ZM106.065 20.3093C104.025 22.329 104.23 23.772 106.44 22.9324C107.751 22.4336 108.298 23.0602 108.334 25.0994C108.362 26.6762 110.51 30.2934 113.108 33.138C117.365 37.798 118.391 38.309 123.501 38.309C130.296 38.309 130.631 37.0217 125.617 30.1657C120.409 23.0468 115.757 19.769 112.139 20.6682C110.485 21.0794 108.771 20.8397 108.331 20.1365C107.787 19.2629 107.066 19.3177 106.065 20.3093ZM80.953 26.7504C81.2761 28.4234 81.7528 29.7921 82.012 29.7921C82.27 29.7921 82.4826 28.4234 82.4826 26.7504C82.4826 25.0775 82.0059 23.7087 81.4247 23.7087C80.8424 23.7087 80.6298 25.0775 80.953 26.7504ZM83.7112 25.5337C83.7112 26.5375 84.6781 27.3977 85.8613 27.4439C87.6993 27.5169 87.655 27.6812 85.5541 28.5754C83.2099 29.5731 83.2234 29.6255 85.8613 29.707C88.0138 29.7727 88.6256 29.1193 88.6256 26.7504C88.6256 24.5202 87.9708 23.7087 86.1684 23.7087C84.8034 23.7087 83.7112 24.5202 83.7112 25.5337ZM91.0104 23.7087C90.9502 24.0433 90.6688 25.5495 90.385 27.0546C89.9906 29.1485 90.4452 29.7921 92.3188 29.7921C94.1961 29.7921 94.7466 29.0098 94.6716 26.4462C94.6188 24.6054 94.2748 23.8462 93.9087 24.7587C93.346 26.1591 93.0769 26.1591 92.1812 24.7587C91.5976 23.8462 91.0706 23.3741 91.0104 23.7087ZM95.9973 25.5337C95.9973 26.5375 96.9642 27.3673 98.1474 27.377C99.9854 27.3928 100.03 27.568 98.4545 28.5754C96.8794 29.5829 96.9237 29.7581 98.7617 29.7739C100.241 29.7861 100.912 28.8431 100.912 26.7504C100.912 24.5202 100.257 23.7087 98.4545 23.7087C97.0895 23.7087 95.9973 24.5202 95.9973 25.5337ZM52.7392 44.0882C50.9601 46.2138 53.7331 49.2592 57.446 49.2592C59.053 49.2592 60.3676 49.5597 60.3676 49.9259C60.3676 50.2921 58.4031 53.6344 56.0024 57.3514C49.917 66.771 50.4589 68.0339 60.7804 68.4792C68.8991 68.8308 69.1423 68.7566 68.7541 66.0458C68.4445 63.885 67.4481 63.1647 64.3606 62.8703C62.1651 62.6598 60.3701 62.1123 60.3725 61.6536C60.3762 61.1937 62.0324 58.3539 64.0534 55.3426C66.0745 52.3313 67.7307 48.4124 67.7344 46.6348C67.7393 43.5687 67.3817 43.3789 60.875 42.9847C56.4189 42.7134 53.5648 43.1003 52.7392 44.0882ZM120.877 42.9299C114.079 43.2499 113.198 43.5772 113.198 45.7807C113.198 47.2468 114.208 48.5316 115.655 48.9063C117.853 49.4757 118.112 50.5659 118.112 59.219C118.112 68.5583 118.208 68.8819 120.877 68.5072C123.435 68.1471 123.668 67.4146 124 58.6885C124.312 50.4807 124.651 49.2592 126.614 49.2592C127.854 49.2592 129.58 48.4099 130.45 47.3733C133.133 44.171 129.575 42.5187 120.877 42.9299ZM13.6804 56.0398C13.6804 67.6348 13.893 68.8649 15.8305 68.5011C17.2471 68.2359 18.112 66.7515 18.3651 64.1539C18.8566 59.1253 19.9734 59.1874 24.0401 64.4678C27.5711 69.0523 30.4964 69.9186 31.725 66.7454C32.2177 65.4752 31.4523 63.9872 29.5909 62.5965C26.6963 60.4345 26.6939 60.4186 28.952 56.2673C30.9547 52.5844 31.0186 51.7023 29.5123 48.6046C27.7431 44.9667 24.4787 43.5042 17.6734 43.2974L13.6804 43.1757V56.0398ZM36.3544 46.1627C33.8947 48.5973 33.3382 50.3639 33.3382 55.732C33.3382 63.8935 36.5694 68.7262 42.0281 68.7262C48.0336 68.7262 50.5412 65.0433 50.5203 56.2551C50.4994 47.933 50.0067 46.6567 46.0125 44.5749C41.9937 42.4798 39.6901 42.8582 36.3544 46.1627ZM71.4251 56.0398C71.4251 67.6348 71.6376 68.8649 73.5752 68.4999C75.2842 68.1775 75.8026 66.6006 76.1024 60.8068L76.4808 53.5188L78.7857 56.5435L81.0893 59.5694L84.1781 56.6968L87.2656 53.8242L87.6378 60.9589C87.9339 66.6104 88.4585 68.1787 90.1614 68.4999C92.0989 68.8649 92.3115 67.6348 92.3115 56.0398C92.3115 41.4565 91.175 40.0281 85.4706 47.4341C83.667 49.7763 81.8425 51.6852 81.4149 51.6779C80.9886 51.6694 79.3902 49.7531 77.8642 47.4195C72.8147 39.6996 71.4251 41.56 71.4251 56.0398ZM95.9973 55.951V68.7262H103.219C108.227 68.7262 110.921 68.1507 112.012 66.8501C114.393 64.0091 111.631 62.0624 105.811 62.4785C102.02 62.7498 100.912 62.3945 100.912 60.9102C100.912 59.5232 102.123 58.9927 105.298 58.9927C109.142 58.9927 109.635 58.6557 109.291 56.2551C108.99 54.1563 107.965 53.4288 104.905 53.1368C98.9226 52.5649 99.5959 49.2592 105.695 49.2592C108.933 49.2592 110.72 48.635 111.227 47.3246C112.502 44.0335 110.863 43.1757 103.296 43.1757H95.9973V55.951ZM135.743 44.3851C130.256 46.5776 128.912 61.3056 133.719 66.5654C136.304 69.3942 141.676 69.3175 145.312 66.3975C147.843 64.3656 148.21 63.0321 148.187 55.9278C148.165 48.8771 147.777 47.4779 145.287 45.4813C142.186 42.9944 139.886 42.7304 135.743 44.3851ZM149.294 44.9424C148.918 45.9145 149.073 47.4195 149.64 48.2883C150.207 49.157 151.776 53.9738 153.128 58.9927C155.355 67.2662 155.871 68.1179 158.656 68.1179C161.52 68.1179 161.948 67.2759 164.992 55.6468L168.256 43.1757H165.4C162.966 43.1757 162.35 44.0797 161.216 49.3188C160.483 52.6975 159.885 56.2892 159.885 57.2991C159.885 58.3101 159.332 58.798 158.656 58.3843C157.981 57.9707 157.428 56.2782 157.428 54.6235C157.428 47.1032 151.288 39.7958 149.294 44.9424ZM25.0684 50.78C26.0132 53.4616 24.5573 55.3426 21.5349 55.3426C19.2178 55.3426 18.5949 54.6978 18.5949 52.3009C18.5949 49.8955 19.2165 49.2592 21.5644 49.2592C23.1972 49.2592 24.7748 49.9442 25.0684 50.78ZM44.8785 51.184C46.9377 56.4973 44.2654 64.8948 41.1423 62.9238C39.7024 62.0149 39.1028 58.5705 39.3449 52.6051C39.4444 50.1802 40.1213 49.2592 41.807 49.2592C43.086 49.2592 44.4682 50.1255 44.8785 51.184ZM142.452 55.1394C142.892 61.1839 140.878 64.6929 138.221 62.5089C136.489 61.0842 135.863 51.5526 137.403 50.0281C139.722 47.731 142.087 50.1255 142.452 55.1394ZM51.7673 74.6271C51.7673 76.4546 58.6426 85.1296 62.9489 88.7359C75.294 99.0729 93.3754 101.64 107.669 95.0858C111.723 93.2267 116.632 90.2312 118.578 88.428C122.641 84.6636 129.17 76.1565 129.17 74.6271C129.17 74.0577 126.509 73.593 123.256 73.593C118.222 73.593 116.807 74.1575 113.735 77.3963C101.718 90.0645 78.1001 89.938 67.2331 77.1481C64.626 74.0808 63.358 73.593 57.9902 73.593C54.5673 73.593 51.7673 74.0577 51.7673 74.6271Z" fill="white"/>
</svg>
