<svg width="244" height="175" viewBox="0 0 244 175" fill="none" xmlns="http://www.w3.org/2000/svg">
<path fill-rule="evenodd" clip-rule="evenodd" d="M105.677 1.66949C103.048 2.59637 98.8704 5.30887 96.394 7.69782C92.8702 11.0988 90.901 12.0427 87.3292 12.0427C82.1771 12.0427 81.654 13.1034 85.227 16.3C88.8664 19.555 88.3569 26.1793 83.7143 35.9298C78.0477 47.8332 77.4779 59.2755 82.0897 68.5905C85.6996 75.8838 92.5859 82.4012 100.866 86.3629L106.227 88.9282L103.966 92.7537C102.507 95.2217 100.454 96.7957 98.1836 97.1886C94.0173 97.9074 92.4271 100.838 96.202 100.838C98.8827 100.838 99.6495 102.587 97.535 103.879C95.7971 104.94 96.0051 106.92 97.8537 106.92C98.7067 106.92 100.129 105.771 101.016 104.369C102.569 101.912 102.688 101.901 104.288 104.063C106.629 107.227 108.084 105.155 106.276 101.232C105.011 98.4889 105.127 97.3102 106.999 93.8581L109.228 89.7493L118.459 90.5764C129.286 91.5458 129.003 91.4242 131.48 96.1595C133.253 99.5483 133.237 100.029 131.274 102.172C128.693 104.99 129.98 106.774 133.173 104.803C135.083 103.624 135.773 103.836 137.29 106.066C139.479 109.283 141.761 107.8 139.682 104.511C138.452 102.562 138.607 102.155 140.702 101.829C144.576 101.228 144.087 99.052 139.988 98.6543C137.35 98.3976 135.659 97.2141 134.103 94.5357C132.903 92.469 132.076 90.67 132.267 90.5399C132.456 90.4097 135.936 89.6154 139.998 88.7737C151.825 86.3252 159.555 82.3634 161.821 77.5892C162.897 75.3231 163.965 72.1009 164.195 70.4284C164.589 67.5675 164.303 67.4009 159.383 67.6174C153.576 67.8741 152.442 65.7977 156.168 61.729C158.046 59.6769 158.014 59.4629 155.685 58.5919C152.36 57.3476 137.86 41.7318 135.084 36.4041C133.873 34.0809 132.107 28.8809 131.159 24.8486C129.246 16.7099 124.988 9.48953 120.317 6.46564C118.63 5.37212 117.554 3.99033 117.927 3.39552C118.299 2.7995 117.463 2.31174 116.07 2.31174C114.676 2.31174 113.535 1.76437 113.535 1.09537C113.535 -0.518756 111.458 -0.36671 105.677 1.66949ZM114.378 7.25506C122.265 10.1999 125.205 15.1481 130.275 34.0152C130.709 35.6269 129.662 35.8385 123.461 35.3946C114.094 34.7256 108.578 37.7239 105.586 45.1133C102.388 53.0125 103.939 58.8875 111.017 65.6882C117.95 72.3503 125.699 75.2939 136.303 75.2939C142.831 75.2939 144.227 74.8791 146.537 72.253C149.622 68.745 150.803 68.5139 152.894 71.005C154.219 72.5826 154.826 72.579 157.968 70.9734C162.514 68.6501 162.787 70.6498 158.744 76.6344C154.324 83.1748 142.798 86.5149 123.997 86.7022C110.996 86.8312 108.49 86.5137 103.074 84.0506C84.1574 75.446 77.1997 56.9559 85.9962 38.6715C88.0529 34.3947 90.3459 27.7862 91.0917 23.9838C92.7681 15.4376 95.3749 11.3761 101.104 8.38264C106.212 5.71392 109.504 5.43416 114.378 7.25506ZM101.474 14.7187C97.7983 18.3508 101.875 24.0349 106.426 21.6277C108.94 20.2982 109.293 16.851 107.135 14.7187C105.258 12.8637 103.35 12.8637 101.474 14.7187ZM129.126 39.4171C133.956 41.4119 153.716 61.0356 151.6 61.7375C150.885 61.9747 149.796 63.4805 149.179 65.0825C148.563 66.6844 147.233 67.9957 146.225 67.9957C145.217 67.9957 143.761 69.161 142.99 70.5853C141.727 72.9171 140.822 73.113 133.856 72.5607C118.871 71.3723 107.381 62.2569 107.381 51.5589C107.381 40.4145 117.652 34.6793 129.126 39.4171ZM50.8545 62.1133C39.0831 74.2199 37.8166 88.4611 47.7467 97.0767C55.5709 103.866 64.6111 104.582 76.8809 99.3829C83.9125 96.4028 86.2436 94.0576 84.1906 92.0287C83.4066 91.2539 82.7654 89.3333 82.7654 87.7593C82.7654 85.6866 81.7672 84.5541 79.1456 83.6516C76.5412 82.7539 75.4187 81.4913 75.1455 79.1535C74.8772 76.8642 73.9541 75.7878 72.0254 75.5177C70.0426 75.2392 69.362 74.4023 69.5638 72.4926C69.746 70.7629 68.8881 69.4347 67.0727 68.6367C65.5502 67.9665 64.3034 66.5883 64.3034 65.5751C64.3034 63.8771 58.0214 57.0484 56.4595 57.0484C56.0854 57.0484 53.5634 59.3278 50.8545 62.1133ZM187.076 60.678C185.215 62.6108 183.691 65.0472 183.691 66.0933C183.691 67.1394 182.88 67.9957 181.888 67.9957C179.906 67.9957 177.606 71.5365 178.323 73.4827C178.573 74.159 177.528 75.2538 176.003 75.9155C174.477 76.5772 173.048 78.3798 172.827 79.921C172.593 81.5533 171.167 83.1954 169.411 83.8559C167.753 84.4787 166.083 85.9542 165.702 87.1353C165.319 88.3164 164.405 90.5204 163.671 92.0336C162.575 94.2912 162.76 95.1037 164.706 96.5682C168.841 99.6809 179.904 103.272 185.276 103.244C201.039 103.162 210.824 88.9915 205.187 74.406C203.231 69.3434 193.222 56.9511 191.215 57.1068C190.8 57.1396 188.937 58.7464 187.076 60.678ZM60.8498 67.2099C61.0849 68.8435 62.2627 69.9662 63.9957 70.2095C66.0093 70.4917 66.765 71.4137 66.765 73.5837C66.765 75.6503 67.7127 76.9263 69.842 77.7266C71.9577 78.5209 72.919 79.8054 72.919 81.8343C72.919 84.0214 73.8765 85.1173 76.6114 86.0588C78.6422 86.7582 80.3038 88.1363 80.3038 89.1192C80.3038 90.1032 80.609 91.6942 80.9819 92.6552C82.0146 95.3141 70.7922 99.6225 62.8449 99.6164C54.1924 99.6104 48.8987 96.3967 45.6728 89.1897C42.1318 81.2785 44.0691 74.0629 52.1825 64.9292C55.7789 60.8811 56.1543 60.7376 58.2454 62.6072C59.4713 63.7043 60.643 65.7746 60.8498 67.2099ZM202.842 75.9252C205.539 82.9035 204.399 88.8333 199.31 94.3094C192.903 101.203 183.693 102.11 171.66 97.0353C166.852 95.0076 166.467 94.5247 167.203 91.4412C168.182 87.3384 168.834 86.6025 171.988 86.0405C173.6 85.7535 174.658 84.3559 175.074 81.9693C175.526 79.3712 176.493 78.2242 178.467 77.9456C180.594 77.6464 181.229 76.7572 181.229 74.0775C181.229 71.4003 181.864 70.5075 183.986 70.2095C185.589 69.9832 186.93 68.8009 187.19 67.3875C187.436 66.0495 188.548 63.9415 189.66 62.7033C191.602 60.5406 191.862 60.6512 196.23 65.5155C198.731 68.301 201.706 72.9852 202.842 75.9252ZM7.11557 131.175C6.27247 132.524 0.30187 148.066 0.30187 148.912C0.30187 150.384 5.04168 149.286 5.67061 147.668C6.05955 146.664 7.79743 145.843 9.53286 145.843C11.2683 145.843 13.0062 146.664 13.3951 147.668C14.1631 149.645 18.7638 150.226 18.7638 148.345C18.7638 147.715 17.3152 143.336 15.5441 138.614C13.1674 132.278 11.736 130.031 10.0781 130.031C8.84238 130.031 7.50943 130.546 7.11557 131.175ZM22.9695 131.679C22.6175 132.586 22.4969 136.823 22.7012 141.093C22.9953 147.257 23.5037 148.941 25.1652 149.254C26.9265 149.585 27.3167 148.432 27.6268 141.968C27.9801 134.598 28.1315 134.272 31.3795 133.903C33.3168 133.682 34.7642 132.772 34.7642 131.775C34.7642 129.408 23.8864 129.319 22.9695 131.679ZM39.2776 130.842C38.8259 131.287 38.4566 135.666 38.4566 140.573C38.4566 148.681 38.6806 149.492 40.9182 149.492C42.7238 149.492 43.3798 148.681 43.3798 146.452C43.3798 144.043 44.0014 143.411 46.3694 143.411C50.1615 143.411 53.2262 140.421 53.2262 136.721C53.2262 135.144 52.356 132.994 51.2926 131.941C49.3775 130.049 40.8678 129.27 39.2776 130.842ZM59.4701 133.236C53.2065 141.104 59.6645 152.176 69.2967 150.085C76.4058 148.542 78.9844 139.422 74.0599 133.236C72.0931 130.763 70.4242 130.031 66.765 130.031C63.1058 130.031 61.4369 130.763 59.4701 133.236ZM95.8943 130.842C95.4426 131.287 95.0734 135.666 95.0734 140.573C95.0734 148.681 95.2974 149.492 97.535 149.492C99.4501 149.492 99.9966 148.681 99.9966 145.843C99.9966 142.484 100.339 142.194 104.304 142.194C108.27 142.194 108.612 142.484 108.612 145.843C108.612 148.707 109.154 149.492 111.125 149.492C113.47 149.492 113.615 148.862 113.279 140.079C112.986 132.4 112.538 130.594 110.85 130.275C109.304 129.983 108.68 130.904 108.388 133.911C108.042 137.467 107.53 137.981 103.997 138.318C100.16 138.684 99.9966 138.522 99.9966 134.364C99.9966 130.285 98.1024 128.658 95.8943 130.842ZM120.249 133.017C113.923 139.268 118.633 150.108 127.568 149.857C135.34 149.64 139.327 143.925 136.859 136.536C134.486 129.431 125.75 127.58 120.249 133.017ZM142.665 130.842C142.213 131.287 141.844 135.666 141.844 140.573V149.492H148.639C154.691 149.492 155.588 149.16 156.835 146.456C157.97 143.996 157.856 143.008 156.24 141.242C155.029 139.92 154.526 138.003 154.959 136.365C155.352 134.881 154.986 132.849 154.147 131.849C152.621 130.032 144.229 129.296 142.665 130.842ZM163.549 138.551C161.765 143.307 160.306 147.715 160.306 148.345C160.306 150.226 164.906 149.645 165.674 147.668C166.695 145.038 172.02 145.422 174.002 148.269C175.111 149.862 176.247 150.343 177.312 149.668C179.885 148.036 172.812 130.762 169.369 130.271C167.197 129.962 166.282 131.264 163.549 138.551ZM182.46 139.673V149.492H189.961C196.484 149.492 197.546 149.817 198.12 151.984C198.927 155.033 202.559 154.649 203.183 151.447C203.427 150.197 203.028 148.013 202.298 146.596C201.567 145.178 200.82 141.013 200.638 137.34C200.378 132.103 199.841 130.574 198.153 130.257C196.278 129.905 195.999 130.889 195.999 137.848V145.843H191.75H187.5L187.135 138.253C186.84 132.164 186.342 130.583 184.614 130.258C182.706 129.899 182.46 130.976 182.46 139.673ZM207.076 139.601C207.076 144.963 207.61 149.675 208.263 150.073C209.56 150.866 212.351 148.421 216.575 142.791L219.307 139.153L219.345 144.323C219.378 148.669 219.777 149.492 221.846 149.492C224.102 149.492 224.307 148.681 224.307 139.762C224.307 128.099 223.012 127.407 216.547 135.608L212.151 141.185L211.768 135.923C211.486 132.063 210.809 130.552 209.23 130.256C207.323 129.899 207.076 130.973 207.076 139.601ZM232.166 130.961C229.328 132.809 229.024 137.124 231.555 139.626C233.985 142.028 233.986 142.077 231.619 145.05C230.305 146.701 229.23 148.376 229.23 148.772C229.23 150.507 233.978 149.269 236.064 146.99L238.356 144.488L239.292 146.99C239.807 148.366 241.077 149.492 242.114 149.492C243.65 149.492 244 147.691 244 139.762V130.031L238.769 130.049C235.891 130.06 232.92 130.47 232.166 130.961ZM47.6876 136.721C47.6876 138.04 46.7177 139.304 45.5337 139.53C43.9201 139.837 43.3798 139.131 43.3798 136.721C43.3798 134.31 43.9201 133.604 45.5337 133.911C46.7177 134.137 47.6876 135.401 47.6876 136.721ZM71.0002 137.697C72.4587 141.81 70.802 145.056 66.9595 145.622C63.2461 146.168 60.8892 140.971 62.8867 136.638C64.8253 132.433 69.3447 133.023 71.0002 137.697ZM130.7 135.425C131.506 136.385 131.989 138.984 131.773 141.203C131.461 144.419 130.773 145.32 128.374 145.655C123.076 146.394 120.136 139.494 124.085 135.591C126.492 133.213 128.794 133.154 130.7 135.425ZM149.844 135.909C149.844 138.11 147.435 137.708 146.956 135.429C146.692 134.16 147.152 133.604 148.187 133.945C149.099 134.245 149.844 135.13 149.844 135.909ZM239.077 136.112C239.077 138.45 236.669 139.41 234.984 137.745C234.053 136.824 236.383 133.68 237.996 133.68C238.591 133.68 239.077 134.774 239.077 136.112ZM171.297 141.282C171.343 141.783 170.552 142.194 169.537 142.194C167.512 142.194 167.255 141.084 168.521 137.821C169.292 135.836 169.419 135.851 170.281 138.026C170.792 139.315 171.249 140.781 171.297 141.282ZM11.3791 140.441C11.3791 141.406 10.5483 142.194 9.53286 142.194C7.46266 142.194 7.37896 141.97 8.43129 139.26C9.29531 137.033 11.3791 137.868 11.3791 140.441ZM80.9561 140.919C80.5118 141.63 80.9672 142.523 81.9678 142.902C84.6386 143.914 90.7656 142.998 90.7656 141.586C90.7656 139.915 81.958 139.318 80.9561 140.919ZM151.69 144.149C151.69 145.081 150.582 145.843 149.229 145.843C146.911 145.843 145.882 143.474 147.503 141.873C148.701 140.688 151.69 142.315 151.69 144.149ZM111.381 159.261C109.146 160.149 108.612 161.316 108.612 165.304C108.612 170.887 111.251 172.949 114.406 169.831C116.83 167.436 115.597 161.656 112.661 161.656C110.888 161.656 110.933 161.409 112.993 159.871C115.715 157.834 115.335 157.691 111.381 159.261ZM217.677 159.446C218.033 160.014 218.839 160.165 219.469 159.779C221.079 158.796 220.898 158.412 218.823 158.412C217.837 158.412 217.321 158.878 217.677 159.446ZM0.582492 166.522C-0.104294 169.198 -0.197835 171.387 0.376948 171.387C0.951731 171.387 1.8096 169.342 2.28346 166.844C3.17332 162.154 3.47856 162.38 5.76662 169.432C6.1777 170.699 6.83249 171.42 7.22265 171.034C8.43253 169.839 5.12537 161.656 3.43302 161.656C2.553 161.656 1.26928 163.846 0.582492 166.522ZM8.92484 163.785C8.92977 164.956 9.72363 167.412 10.6898 169.243C12.2591 172.214 12.2246 172.701 10.3747 173.768C8.44114 174.882 8.44237 174.964 10.408 175C11.8923 175.025 13.0726 173.179 14.4044 168.748C15.4432 165.288 16.0315 162.2 15.7115 161.884C15.3915 161.567 14.7859 162.345 14.3674 163.611C12.4511 169.396 12.2788 169.504 11.1871 165.609C9.97472 161.29 8.91254 160.432 8.92484 163.785ZM19.1774 164.089C19.3189 166.213 20.1916 167.244 22.0735 167.508C23.5541 167.717 25.0138 168.812 25.3154 169.941C25.6169 171.071 25.852 169.532 25.8385 166.522C25.8249 163.511 25.5739 162.279 25.2797 163.785C24.9548 165.454 23.8532 166.522 22.4562 166.522C21.0778 166.522 19.9294 165.432 19.5713 163.785C19.0469 161.373 19.0002 161.409 19.1774 164.089ZM28.8441 166.218C29.2219 170.735 29.2823 170.783 35.0719 171.15L40.9182 171.521L40.7114 166.284L40.5047 161.048L40.0222 165.609C39.3773 171.701 35.995 171.956 35.995 165.913C35.995 163.572 35.4412 161.656 34.7642 161.656C34.0873 161.656 33.5334 163.572 33.5334 165.913C33.5334 168.255 32.9796 170.171 32.3026 170.171C31.6257 170.171 31.0718 168.255 31.0718 165.913C31.0718 163.572 30.4847 161.656 29.7672 161.656C29.0115 161.656 28.6225 163.577 28.8441 166.218ZM44.2525 162.415C43.7724 162.89 43.3798 164.819 43.3798 166.702C43.3798 169.355 44.0838 170.3 46.5147 170.902C48.2378 171.33 49.9917 171.34 50.4114 170.925C50.8311 170.51 50.0077 170.171 48.5812 170.171C47.1535 170.171 45.6445 169.623 45.226 168.954C44.7928 168.261 45.8574 167.738 47.7012 167.738C50.3511 167.738 50.8643 167.244 50.5431 165.001C50.1541 162.3 46.0691 160.62 44.2525 162.415ZM53.7271 164.713C52.7794 168.445 55.0318 171.448 58.6073 171.222C61.1156 171.062 61.1095 171.033 58.4571 170.528C54.7056 169.814 54.9346 167.738 58.7648 167.738C60.4572 167.738 61.8418 167.236 61.8418 166.621C61.8418 161.102 55.0503 159.503 53.7271 164.713ZM67.9958 166.45C67.9958 172.124 69.8235 172.877 72.0217 168.108L73.5332 164.83L74.311 168.412C74.9683 171.437 75.1061 171.141 75.1935 166.522L75.2981 161.048L72.8784 163.92C71.1183 166.007 70.4574 166.276 70.4574 164.904C70.4574 163.865 69.9035 162.678 69.2266 162.264C68.4832 161.811 67.9958 163.469 67.9958 166.45ZM79.3831 166.522C79.3696 169.532 79.6121 171.038 79.921 169.867C80.2312 168.695 81.5112 167.738 82.7654 167.738C84.0196 167.738 85.2996 168.695 85.6097 169.867C85.9187 171.038 86.1612 169.532 86.1476 166.522C86.1341 163.511 85.883 162.279 85.5888 163.785C85.2639 165.454 84.1623 166.522 82.7654 166.522C81.3684 166.522 80.2669 165.454 79.9419 163.785C79.6478 162.279 79.3967 163.511 79.3831 166.522ZM90.3114 166.522C90.3803 169.532 90.6966 170.997 91.0167 169.775C91.5791 167.625 91.6801 167.625 94.2106 169.775L96.8236 171.995L94.805 168.824C92.9342 165.885 92.9342 165.508 94.8087 163.655C95.9915 162.486 96.2414 161.656 95.4094 161.656C94.6278 161.656 93.6087 162.262 93.1459 163.003C92.5588 163.94 91.9841 163.849 91.2456 162.699C90.5723 161.649 90.2326 163.039 90.3114 166.522ZM98.8667 163.481C98.8199 164.819 99.5719 167.412 100.538 169.243C102.107 172.214 102.073 172.701 100.223 173.768C98.2894 174.882 98.2907 174.964 100.256 175C101.742 175.025 102.921 173.176 104.256 168.733C106.501 161.264 106.464 161.656 104.92 161.656C104.243 161.656 103.689 162.933 103.689 164.494C103.689 169.104 102.015 169.401 100.429 165.073C99.4255 162.337 98.9258 161.828 98.8667 163.481ZM121.228 162.433C124.149 163.27 123.943 164.876 120.813 165.685C116.991 166.674 118.26 170.684 122.548 171.172C125.856 171.548 125.986 171.366 125.616 166.915C125.285 162.941 124.78 162.232 122.151 162.039C120.374 161.91 119.983 162.076 121.228 162.433ZM128.774 165.871C128.907 170.256 129.27 170.763 132.779 171.466L136.636 172.239L135.994 167.251C135.159 160.779 134.459 160.076 134.459 165.71C134.459 169.313 134 170.171 132.071 170.171C130.227 170.171 129.564 169.133 129.155 165.609L128.627 161.048L128.774 165.871ZM138.151 165.842C138.151 169.811 139.801 172.507 140.997 170.494C141.89 168.99 140.436 161.656 139.243 161.656C138.642 161.656 138.151 163.539 138.151 165.842ZM143.118 164.009C141.51 166.978 141.494 168.094 143.075 167.13C143.751 166.716 144.305 167.199 144.305 168.203C144.305 169.206 144.859 170.365 145.536 170.779C146.28 171.233 146.767 169.575 146.767 166.593C146.767 161.305 145.188 160.186 143.118 164.009ZM150.101 162.415C149.621 162.89 149.229 164.792 149.229 166.642C149.229 168.992 150.008 170.251 151.814 170.818C155.231 171.889 156.899 170.05 156.402 165.758C156.007 162.339 152.214 160.327 150.101 162.415ZM159.075 165.842C159.075 168.144 159.629 170.365 160.306 170.779C160.983 171.192 161.536 170.677 161.536 169.634C161.536 167.101 163.949 167.227 165.977 169.867C167.42 171.744 167.617 171.385 167.651 166.826C167.673 163.982 167.137 161.656 166.46 161.656C165.783 161.656 165.229 162.751 165.229 164.089C165.229 165.44 164.408 166.522 163.383 166.522C162.357 166.522 161.536 165.44 161.536 164.089C161.536 162.751 160.983 161.656 160.306 161.656C159.629 161.656 159.075 163.539 159.075 165.842ZM170.462 166.522C170.449 169.532 170.691 171.038 171 169.867C171.31 168.695 172.59 167.738 173.844 167.738C175.099 167.738 176.379 168.695 176.689 169.867C176.998 171.038 177.24 169.532 177.227 166.522C177.213 163.511 176.962 162.279 176.668 163.785C176.343 165.454 175.241 166.522 173.844 166.522C172.448 166.522 171.346 165.454 171.021 163.785C170.727 162.279 170.476 163.511 170.462 166.522ZM180.499 164.713C179.681 167.938 181.648 171.387 184.306 171.387C186.965 171.387 188.932 167.938 188.113 164.713C187.547 162.483 186.516 161.656 184.306 161.656C182.097 161.656 181.066 162.483 180.499 164.713ZM191.076 164.089C189.264 167.435 191.534 171.439 195.119 171.222L197.845 171.056L195.076 170.528C191.324 169.814 191.553 167.738 195.383 167.738C198.548 167.738 199.008 166.916 197.713 163.58C196.663 160.876 192.649 161.184 191.076 164.089ZM206.175 166.602C206.338 170.64 206.634 171.199 207.784 169.643C209.605 167.181 210.456 167.237 211.151 169.867C211.46 171.038 211.778 169.67 211.856 166.826C211.987 162.114 211.732 161.656 208.987 161.656C206.254 161.656 205.994 162.112 206.175 166.602ZM214.461 165.842C214.461 170.848 216.282 172.409 218.135 168.988C219.889 165.749 221.545 165.859 222.208 169.258C222.502 170.764 222.817 169.67 222.909 166.826C223.096 161.061 221.87 160.302 218.983 164.393L217.052 167.13L216.986 164.393C216.881 159.906 214.461 161.295 214.461 165.842ZM225.961 165.871C226.137 170.28 226.496 170.761 230.154 171.494L234.154 172.296V166.977C234.154 164.05 233.6 161.656 232.923 161.656C232.246 161.656 231.692 163.612 231.692 166.002C231.692 169.486 231.265 170.268 229.538 169.942C228.185 169.687 227.084 167.956 226.577 165.292L225.769 161.048L225.961 165.871ZM237.127 163.307C236.738 164.309 236.603 166.4 236.826 167.953C237.126 170.049 238.024 170.779 240.308 170.779C243.003 170.779 243.385 170.252 243.385 166.522C243.385 163.031 242.885 162.194 240.61 161.875C238.992 161.648 237.54 162.245 237.127 163.307ZM49.5338 164.697C49.5338 165.71 48.4396 166.522 47.0722 166.522C44.6205 166.522 43.8709 165.225 45.4316 163.684C46.9307 162.202 49.5338 162.846 49.5338 164.697ZM59.3802 164.697C59.3802 165.701 58.5494 166.522 57.534 166.522C56.5186 166.522 55.6878 165.701 55.6878 164.697C55.6878 163.694 56.5186 162.873 57.534 162.873C58.5494 162.873 59.3802 163.694 59.3802 164.697ZM114.442 165.319C114.897 167.884 112.839 170.64 111.212 169.646C110.458 169.187 109.843 167.435 109.843 165.753C109.843 163.503 110.408 162.802 111.983 163.101C113.16 163.325 114.266 164.324 114.442 165.319ZM155.156 166.124C154.71 169.847 152.056 171.312 150.944 168.447C149.893 165.741 151.248 162.873 153.579 162.873C154.987 162.873 155.435 163.796 155.156 166.124ZM186.152 166.522C186.152 168.954 185.537 170.171 184.306 170.171C183.075 170.171 182.46 168.954 182.46 166.522C182.46 164.089 183.075 162.873 184.306 162.873C185.537 162.873 186.152 164.089 186.152 166.522ZM195.999 164.697C195.999 165.701 195.168 166.522 194.153 166.522C193.137 166.522 192.306 165.701 192.306 164.697C192.306 163.694 193.137 162.873 194.153 162.873C195.168 162.873 195.999 163.694 195.999 164.697ZM210.768 164.697C210.768 165.701 209.938 166.522 208.922 166.522C207.907 166.522 207.076 165.701 207.076 164.697C207.076 163.694 207.907 162.873 208.922 162.873C209.938 162.873 210.768 163.694 210.768 164.697ZM242.154 166.522C242.154 169.856 239.413 171.236 238.331 168.447C237.312 165.823 238.729 162.555 240.617 163.177C241.462 163.455 242.154 164.961 242.154 166.522ZM123.382 168.346C123.382 169.35 122.551 170.171 121.536 170.171C120.52 170.171 119.689 169.35 119.689 168.346C119.689 167.343 120.52 166.522 121.536 166.522C122.551 166.522 123.382 167.343 123.382 168.346Z" fill="white"/>
</svg>
