<svg width="156" height="77" viewBox="0 0 156 77" fill="none" xmlns="http://www.w3.org/2000/svg">
<path fill-rule="evenodd" clip-rule="evenodd" d="M65.0188 10.375H48.3563C26.2068 10.375 8.25 28.3318 8.25 50.4813C8.25 55.2601 10.1484 59.8433 13.5276 63.2224C16.9067 66.6016 21.4899 68.5 26.2687 68.5H87.1063C91.8851 68.5 96.4683 66.6016 99.8474 63.2224C103.227 59.8433 105.125 55.2601 105.125 50.4813C105.125 28.3318 87.1683 10.375 65.0188 10.375ZM48.3563 2.625C21.9288 2.625 0.5 24.0538 0.5 50.4813C0.5 57.3155 3.21491 63.8699 8.04749 68.7025C12.8801 73.5351 19.4345 76.25 26.2687 76.25H87.1063C93.9406 76.25 100.495 73.5351 105.328 68.7025C110.16 63.8699 112.875 57.3155 112.875 50.4813C112.875 24.0538 91.4463 2.625 65.0188 2.625H48.3563Z" fill="white"/>
<path fill-rule="evenodd" clip-rule="evenodd" d="M35.995 18.404C33.0384 23.4144 31.5 29.5175 31.5 33.625C31.5 34.6527 31.0917 35.6383 30.365 36.365C29.6383 37.0917 28.6527 37.5 27.625 37.5C26.5973 37.5 25.6117 37.0917 24.885 36.365C24.1583 35.6383 23.75 34.6527 23.75 33.625C23.75 28.045 25.703 20.5856 29.33 14.4593C32.9066 8.39875 38.785 2.625 47 2.625C48.0277 2.625 49.0133 3.03326 49.74 3.75996C50.4667 4.48666 50.875 5.47229 50.875 6.5C50.875 7.52771 50.4667 8.51334 49.74 9.24004C49.0133 9.96674 48.0277 10.375 47 10.375C42.815 10.375 39.002 13.32 35.995 18.404ZM55.37 18.404C52.4134 23.4144 50.875 29.5175 50.875 33.625C50.875 34.6527 50.4667 35.6383 49.74 36.365C49.0133 37.0917 48.0277 37.5 47 37.5C45.9723 37.5 44.9867 37.0917 44.26 36.365C43.5333 35.6383 43.125 34.6527 43.125 33.625C43.125 28.045 45.078 20.5856 48.705 14.4593C52.2816 8.39875 58.16 2.625 66.375 2.625C67.4027 2.625 68.3883 3.03326 69.115 3.75996C69.8417 4.48666 70.25 5.47229 70.25 6.5C70.25 7.52771 69.8417 8.51334 69.115 9.24004C68.3883 9.96674 67.4027 10.375 66.375 10.375C62.19 10.375 58.377 13.32 55.37 18.404ZM82.2238 6.45737C82.7484 7.34031 82.9011 8.39541 82.6482 9.39084C82.3953 10.3863 81.7577 11.2406 80.8753 11.7661C77.7869 13.6067 75.086 17.1756 73.1408 21.5234C71.2033 25.8363 70.25 30.3932 70.25 33.625C70.25 34.6527 69.8417 35.6383 69.115 36.365C68.3883 37.0917 67.4027 37.5 66.375 37.5C65.3473 37.5 64.3617 37.0917 63.635 36.365C62.9083 35.6383 62.5 34.6527 62.5 33.625C62.5 29.13 63.7594 23.4996 66.065 18.3536C68.359 13.2386 71.9162 8.07713 76.915 5.10888C77.7979 4.58424 78.853 4.43157 79.8485 4.68442C80.8439 4.93727 81.6982 5.57497 82.2238 6.45737ZM120.625 -32.25C121.653 -32.25 122.638 -31.8417 123.365 -31.115C124.092 -30.3883 124.5 -29.4027 124.5 -28.375V25.875C124.5 26.9027 124.092 27.8883 123.365 28.615C122.638 29.3417 121.653 29.75 120.625 29.75C119.597 29.75 118.612 29.3417 117.885 28.615C117.158 27.8883 116.75 26.9027 116.75 25.875V-28.375C116.75 -29.4027 117.158 -30.3883 117.885 -31.115C118.612 -31.8417 119.597 -32.25 120.625 -32.25ZM151.625 -32.25C152.653 -32.25 153.638 -31.8417 154.365 -31.115C155.092 -30.3883 155.5 -29.4027 155.5 -28.375V25.875C155.5 26.9027 155.092 27.8883 154.365 28.615C153.638 29.3417 152.653 29.75 151.625 29.75C150.597 29.75 149.612 29.3417 148.885 28.615C148.158 27.8883 147.75 26.9027 147.75 25.875V-28.375C147.75 -29.4027 148.158 -30.3883 148.885 -31.115C149.612 -31.8417 150.597 -32.25 151.625 -32.25ZM136.125 -32.25C137.153 -32.25 138.138 -31.8417 138.865 -31.115C139.592 -30.3883 140 -29.4027 140 -28.375V25.875C140 26.9027 139.592 27.8883 138.865 28.615C138.138 29.3417 137.153 29.75 136.125 29.75C135.097 29.75 134.112 29.3417 133.385 28.615C132.658 27.8883 132.25 26.9027 132.25 25.875V-28.375C132.25 -29.4027 132.658 -30.3883 133.385 -31.115C134.112 -31.8417 135.097 -32.25 136.125 -32.25Z" fill="white"/>
<path fill-rule="evenodd" clip-rule="evenodd" d="M136.125 14.25C137.153 14.25 138.138 14.6583 138.865 15.385C139.592 16.1117 140 17.0973 140 18.125V72.375C140 73.4027 139.592 74.3883 138.865 75.115C138.138 75.8417 137.153 76.25 136.125 76.25C135.097 76.25 134.112 75.8417 133.385 75.115C132.658 74.3883 132.25 73.4027 132.25 72.375V18.125C132.25 17.0973 132.658 16.1117 133.385 15.385C134.112 14.6583 135.097 14.25 136.125 14.25ZM116.75 -28.375V-6.954C116.75 -4.07533 117.551 -1.25347 119.064 1.19537C120.578 3.64421 122.743 5.62327 125.318 6.91076L140 14.25V-7.171C140 -10.0497 139.199 -12.8715 137.686 -15.3204C136.172 -17.7692 134.007 -19.7483 131.432 -21.0357L116.75 -28.375ZM124.5 -15.8355V-6.954C124.5 -5.51446 124.901 -4.10339 125.658 -2.87895C126.415 -1.65451 127.498 -0.6651 128.786 -0.0216274L132.25 1.7105V-7.171C132.25 -8.61054 131.849 -10.0216 131.092 -11.2461C130.335 -12.4705 129.252 -13.4599 127.964 -14.1034L124.5 -15.8355Z" fill="white"/>
<path fill-rule="evenodd" clip-rule="evenodd" d="M116.75 -5.125V16.296C116.75 19.1747 117.551 21.9965 119.064 24.4454C120.578 26.8942 122.743 28.8733 125.318 30.1608L140 37.5V16.079C140 13.2003 139.199 10.3785 137.686 7.92963C136.172 5.48079 134.007 3.50173 131.432 2.21425L116.75 -5.125ZM124.5 7.4145V16.296C124.5 17.7355 124.901 19.1466 125.658 20.3711C126.415 21.5955 127.498 22.5849 128.786 23.2284L132.25 24.9605V16.079C132.25 14.6395 131.849 13.2284 131.092 12.0039C130.335 10.7795 129.252 9.7901 127.964 9.14663L124.5 7.4145Z" fill="white"/>
<path fill-rule="evenodd" clip-rule="evenodd" d="M116.75 18.125V39.546C116.75 42.4247 117.551 45.2465 119.064 47.6954C120.578 50.1442 122.743 52.1233 125.318 53.4107L140 60.75V39.329C140 36.4503 139.199 33.6285 137.686 31.1796C136.172 28.7308 134.007 26.7517 131.432 25.4642L116.75 18.125ZM124.5 30.6645V39.546C124.5 40.9855 124.901 42.3966 125.658 43.621C126.415 44.8455 127.498 45.8349 128.786 46.4784L132.25 48.2105V39.329C132.25 37.8895 131.849 36.4784 131.092 35.2539C130.335 34.0295 129.252 33.0401 127.964 32.3966L124.5 30.6645ZM155.5 -28.375V-6.954C155.5 -4.07533 154.699 -1.25347 153.186 1.19537C151.672 3.64421 149.507 5.62327 146.932 6.91076L132.25 14.25V-7.171C132.25 -10.0497 133.051 -12.8715 134.564 -15.3204C136.078 -17.7692 138.243 -19.7483 140.818 -21.0357L155.5 -28.375ZM147.75 -15.8355V-6.954C147.75 -5.51446 147.349 -4.10339 146.592 -2.87895C145.835 -1.65451 144.752 -0.6651 143.464 -0.0216274L140 1.7105V-7.171C140 -8.61054 140.401 -10.0216 141.158 -11.2461C141.915 -12.4705 142.998 -13.4599 144.286 -14.1034L147.75 -15.8355Z" fill="white"/>
<path fill-rule="evenodd" clip-rule="evenodd" d="M155.5 -5.125V16.296C155.5 19.1747 154.699 21.9965 153.186 24.4454C151.672 26.8942 149.507 28.8733 146.932 30.1608L132.25 37.5V16.079C132.25 13.2003 133.051 10.3785 134.564 7.92963C136.078 5.48079 138.243 3.50173 140.818 2.21425L155.5 -5.125ZM147.75 7.4145V16.296C147.75 17.7355 147.349 19.1466 146.592 20.3711C145.835 21.5955 144.752 22.5849 143.464 23.2284L140 24.9605V16.079C140 14.6395 140.401 13.2284 141.158 12.0039C141.915 10.7795 142.998 9.7901 144.286 9.14663L147.75 7.4145Z" fill="white"/>
<path fill-rule="evenodd" clip-rule="evenodd" d="M155.5 18.125V39.546C155.5 42.4247 154.699 45.2465 153.186 47.6954C151.672 50.1442 149.507 52.1233 146.932 53.4107L132.25 60.75V39.329C132.25 36.4503 133.051 33.6285 134.564 31.1796C136.078 28.7308 138.243 26.7517 140.818 25.4642L155.5 18.125ZM147.75 30.6645V39.546C147.75 40.9855 147.349 42.3966 146.592 43.6211C145.835 44.8455 144.752 45.8349 143.464 46.4784L140 48.2105V39.329C140 37.8895 140.401 36.4784 141.158 35.2539C141.915 34.0295 142.998 33.0401 144.286 32.3966L147.75 30.6645Z" fill="white"/>
</svg>
