<svg width="111" height="111" viewBox="0 0 111 111" fill="none" xmlns="http://www.w3.org/2000/svg">
<path d="M71.6875 44.5387C65.6953 47.7322 60.2346 51.8355 55.5 56.7025C50.7911 51.8064 45.3255 47.6994 39.3125 44.5387C40.4225 31.7275 45.88 19.1475 55.7775 9.25C65.5825 19.055 70.8088 31.635 71.6875 44.5387ZM55.5 71.4562C65.4438 56.2863 82.4175 46.25 101.75 46.25C101.75 92.5 58.645 101.195 55.5 101.75C52.355 101.241 9.25 92.5 9.25 46.25C28.5825 46.25 45.5562 56.2863 55.5 71.4562ZM55.7313 24.0037C52.6787 28.8137 50.5513 34.1325 49.395 39.6825L55.5 44.1688L61.7438 39.6362C60.68 34.0862 58.645 28.7675 55.7313 24.0037ZM55.5 92.3612C55.5 92.3612 83.25 87.875 91.2975 56.6562C64.75 64.75 55.5 88.3375 55.5 88.3375C55.5 88.3375 41.625 60.125 19.7025 56.7025C27.75 87.875 55.5 92.3612 55.5 92.3612Z" fill="white"/>
</svg>
