<svg width="117" height="117" viewBox="0 0 117 117" fill="none" xmlns="http://www.w3.org/2000/svg">
<path d="M83.8508 24.375C86.7758 24.375 89.7008 24.375 92.1383 24.8625C93.1133 36.075 93.1133 58.5 79.9508 74.1C70.2008 86.2875 53.6258 92.625 31.2008 92.625H24.8633C23.8883 70.2 28.2758 52.65 38.5133 41.4375C50.7008 27.3 70.2008 24.375 83.8508 24.375ZM83.8508 14.625C57.0383 14.625 7.80085 24.8625 15.6008 101.4C20.9633 101.887 26.3258 102.375 31.2008 102.375C118.463 102.375 100.913 16.0875 100.913 16.0875C100.913 16.0875 94.0883 14.625 83.8508 14.625ZM82.8758 34.125C34.1258 34.125 34.1258 82.875 34.1258 82.875C53.6258 43.875 82.8758 34.125 82.8758 34.125Z" fill="white"/>
</svg>
